<svg width="267" height="534" viewBox="0 0 267 534" fill="none" xmlns="http://www.w3.org/2000/svg">
<rect x="266.667" width="266.667" height="266.667" transform="rotate(90 266.667 0)" fill="#D98BC3"/>
<g clip-path="url(#clip0_36_258)">
<rect width="266.667" height="266.667" transform="translate(266.667 266.667) rotate(90)" fill="#B14092"/>
<path d="M266.667 284.963L266.667 279.741L253.592 266.667L248.37 266.667L266.667 284.963Z" fill="white"/>
<path d="M266.667 300.667L266.667 295.408L237.926 266.667L232.667 266.667L266.667 300.667Z" fill="white"/>
<path d="M266.667 316.334L266.667 311.111L222.222 266.667L217 266.667L266.667 316.334Z" fill="white"/>
<path d="M266.667 332.037L266.667 326.778L206.555 266.667L201.296 266.667L266.667 332.037Z" fill="white"/>
<path d="M266.667 347.704L266.667 342.482L190.852 266.667L185.629 266.667L266.667 347.704Z" fill="white"/>
<path d="M266.666 363.408L266.666 358.148L175.185 266.667L169.926 266.667L266.666 363.408Z" fill="white"/>
<path d="M266.666 379.074L266.666 373.852L159.481 266.667L154.259 266.667L266.666 379.074Z" fill="white"/>
<path d="M266.666 394.778L266.666 389.556L143.778 266.667L138.555 266.667L266.666 394.778Z" fill="white"/>
<path d="M266.666 410.445L266.666 405.223L128.111 266.667L122.889 266.667L266.666 410.445Z" fill="white"/>
<path d="M266.666 426.148L266.666 420.926L112.407 266.667L107.185 266.667L266.666 426.148Z" fill="white"/>
<path d="M266.666 441.852L266.666 436.593L96.7406 266.667L91.4813 266.667L266.666 441.852Z" fill="white"/>
<path d="M266.666 457.519L266.666 452.297L81.0369 266.667L75.8147 266.667L266.666 457.519Z" fill="white"/>
<path d="M266.666 473.223L266.666 467.963L65.3702 266.667L60.111 266.667L266.666 473.223Z" fill="white"/>
<path d="M266.666 488.889L266.666 483.667L49.6665 266.667L44.4443 266.667L266.666 488.889Z" fill="white"/>
<path d="M266.666 504.593L266.666 499.334L33.9999 266.667L28.7406 266.667L266.666 504.593Z" fill="white"/>
<path d="M266.666 520.26L266.666 515.037L18.2962 266.667L13.0739 266.667L266.666 520.26Z" fill="white"/>
<path d="M266.666 533.334L266.666 530.704L2.62949 266.667L-0.000146866 266.667L-0.000146981 269.297L264.037 533.334L266.666 533.334Z" fill="white"/>
<path d="M248.37 533.334L253.592 533.334L-0.000147438 279.741L-0.000147666 284.963L248.37 533.334Z" fill="white"/>
<path d="M232.666 533.334L237.926 533.334L-0.000148123 295.408L-0.000148353 300.667L232.666 533.334Z" fill="white"/>
<path d="M217 533.334L222.222 533.334L-0.000148809 311.111L-0.000149038 316.334L217 533.334Z" fill="white"/>
<path d="M201.296 533.334L206.555 533.334L-0.000149494 326.778L-0.000149724 332.037L201.296 533.334Z" fill="white"/>
<path d="M185.629 533.334L190.852 533.334L-0.000129836 342.482L-0.000130065 347.704L185.629 533.334Z" fill="white"/>
<path d="M169.926 533.334L175.185 533.334L-0.000150866 358.148L-0.000151096 363.408L169.926 533.334Z" fill="white"/>
<path d="M154.259 533.334L159.481 533.334L-0.000151553 373.852L-0.000151781 379.074L154.259 533.334Z" fill="white"/>
<path d="M138.555 533.334L143.815 533.334L-0.00015224 389.556L-0.000152468 394.778L138.555 533.334Z" fill="white"/>
<path d="M122.889 533.334L128.111 533.334L-0.000152925 405.223L-0.000153153 410.445L122.889 533.334Z" fill="white"/>
<path d="M107.185 533.334L112.407 533.334L-0.000153612 420.926L-0.00015384 426.148L107.185 533.334Z" fill="white"/>
<path d="M91.4813 533.334L96.7406 533.334L-0.000154297 436.593L-0.000154527 441.852L91.4813 533.334Z" fill="white"/>
<path d="M75.8147 533.334L81.0369 533.334L-0.000154983 452.297L-0.000155212 457.519L75.8147 533.334Z" fill="white"/>
<path d="M60.111 533.334L65.3702 533.334L-0.000155668 467.963L-0.000155898 473.223L60.111 533.334Z" fill="white"/>
<path d="M44.4443 533.334L49.6665 533.334L-0.000156355 483.667L-0.000156584 488.889L44.4443 533.334Z" fill="white"/>
<path d="M28.7406 533.334L33.9998 533.334L-0.00015704 499.334L-0.00015727 504.593L28.7406 533.334Z" fill="white"/>
<path d="M13.0739 533.334L18.2961 533.334L-0.000157727 515.037L-0.000157955 520.26L13.0739 533.334Z" fill="white"/>
</g>
<defs>
<clipPath id="clip0_36_258">
<rect width="266.667" height="266.667" fill="white" transform="translate(266.667 266.667) rotate(90)"/>
</clipPath>
</defs>
</svg>
