<svg width="72" height="72" viewBox="0 0 72 72" fill="none" xmlns="http://www.w3.org/2000/svg">
<g clip-path="url(#clip0_1624_349)">
<g clip-path="url(#clip1_1624_349)">
<g clip-path="url(#clip2_1624_349)">
<path d="M73.6605 1.83799C69.2926 6.52197 66.387 12.3798 65.3004 18.6923C63.8655 26.7955 63.9253 34.2109 58.694 41.0782C56.0036 44.6066 53.383 48.0552 50.7225 51.6832C48.9089 54.1849 45.4114 58.0521 42.2926 54.8626C39.9609 51.6533 38.6655 49.0818 35.4968 46.5402C32.1588 43.879 28.8904 41.0683 25.3929 38.5665C19.7232 34.5897 9.8584 32.3471 7.13812 25.2406C4.83634 19.2404 8.43349 12.0841 11.7616 7.10059C16.8136 -0.364727 24.0976 3.56229 31.1723 -0.0358153C32.1077 -0.520171 33.0098 -1.06624 33.8726 -1.67041" stroke="white" stroke-width="0.36" stroke-linecap="round" stroke-linejoin="round"/>
<path d="M-1.67041 37.7094C4.02923 40.6995 10.5161 41.8856 16.5346 44.3873C24.5061 47.6964 29.0997 54.2946 34.6001 60.524C39.1538 65.6769 47.7431 72.8831 54.8976 73.2618C61.7132 75.2552 62.341 62.6071 63.8655 58.6502C65.3502 54.9025 68.7082 52.7497 70.3025 49.1914C71.7773 45.9721 71.4783 41.9853 72.2356 38.6264C73.4413 33.2541 73.2321 27.6626 73.6605 22.2007" stroke="white" stroke-width="0.36" stroke-linecap="round" stroke-linejoin="round"/>
<path d="M8.57301 -1.67041C8.47336 -1.41127 8.38368 -1.16209 8.294 -0.883014C6.74952 3.67192 5.25486 8.2468 2.60432 12.3233C1.60788 13.8483 -0.165784 15.7021 -1.67041 17.6557" stroke="white" stroke-width="0.36" stroke-linecap="round" stroke-linejoin="round"/>
<path d="M-1.67041 43.0417C3.4513 44.8757 9.11109 45.6332 14.7908 47.3674C20.4705 49.1017 23.7588 53.248 27.2762 57.773C30.4947 61.9193 34.1317 65.6071 37.42 69.6637C38.546 71.0491 39.5424 72.3747 40.5289 73.6505" stroke="white" stroke-width="0.36" stroke-linecap="round" stroke-linejoin="round"/>
<path d="M22.7723 17.9448C20.4904 26.5164 35.9951 37.7094 42.3723 41.8657C47.3545 45.3442 52.5958 37.8789 54.5189 34.2708C56.9602 29.6461 57.1296 24.533 57.3886 19.4897C57.6677 13.9181 61.9125 -3.89301 49.3374 3.54241C44.5744 6.34315 41.0072 9.45286 35.447 11.0875C30.983 12.3433 24.1573 12.7819 22.7723 17.9448Z" stroke="white" stroke-width="0.36" stroke-linecap="round" stroke-linejoin="round"/>
<path d="M-1.67041 49.1216C-1.18215 49.291 -0.673969 49.4605 -0.185713 49.61C4.79649 51.0951 10.0677 51.0353 14.8606 53.3177C19.6534 55.6002 22.6228 59.5571 25.8214 63.504C28.6114 66.9028 31.4114 70.2816 34.2015 73.6804" stroke="white" stroke-width="0.36" stroke-linecap="round" stroke-linejoin="round"/>
<path d="M43.1993 -1.67041C41.9627 -0.541808 40.6289 0.475452 39.2135 1.36954C36.0131 3.32602 32.5117 4.74043 28.8505 5.55569C26.0505 6.17365 23.2306 6.01418 20.7495 7.64877C16.5644 10.3997 13.0769 16.9082 14.4121 21.9515C15.7473 26.9948 21.6164 30.0248 25.4626 33.1345C30.684 37.3207 36.6726 41.1081 41.0271 46.0916C47.3146 53.4573 52.7651 42.9819 55.8142 37.9984C59.9794 31.2806 60.2484 24.1442 61.484 16.5792C62.5321 9.73446 65.6353 3.36997 70.3822 -1.67041" stroke="white" stroke-width="0.36" stroke-linecap="round" stroke-linejoin="round"/>
<path d="M-1.67041 63.813C0.980124 64.8994 3.63066 65.9758 6.30112 66.9825C10.4961 68.5573 13.047 70.8896 16.0364 73.6804" stroke="white" stroke-width="0.36" stroke-linecap="round" stroke-linejoin="round"/>
<path d="M23.5396 73.6804C22.3936 72.594 21.1979 71.4877 19.9524 70.2916C16.4648 66.9028 13.1965 63.9127 8.63279 62.009C5.27479 60.6336 1.78724 59.6468 -1.67041 58.5305" stroke="white" stroke-width="0.36" stroke-linecap="round" stroke-linejoin="round"/>
<path d="M28.8505 73.6805C27.7843 72.4446 26.6982 71.2287 25.5921 70.0525C21.9053 66.1056 18.8662 61.6204 14.0434 58.9293C9.2206 56.2382 3.55085 55.5904 -1.69043 53.9458" stroke="white" stroke-width="0.36" stroke-linecap="round" stroke-linejoin="round"/>
<path d="M3.15237 -1.67041C2.08617 1.88782 1.01998 5.91451 -1.40137 8.78502C-1.48504 8.89309 -1.57487 8.99626 -1.67041 9.09399" stroke="white" stroke-width="0.36" stroke-linecap="round" stroke-linejoin="round"/>
<path d="M46.6768 26.8752C48.2512 31.0314 43.0996 31.6294 41.6049 28.6692C40.4989 26.4964 44.933 22.3302 46.6768 26.8752Z" stroke="white" stroke-width="0.36" stroke-linecap="round" stroke-linejoin="round"/>
<path d="M47.6035 15.2226C57.3088 20.2061 48.4206 45.034 37.9779 32.6749C34.7793 28.8775 30.2654 22.7079 34.6498 18.0931C37.2804 15.3223 44.1458 13.4385 47.6035 15.2226Z" stroke="white" stroke-width="0.36" stroke-linecap="round" stroke-linejoin="round"/>
<path d="M6.90894 34.591C3.91961 32.5976 0.661248 31.2221 -1.70032 28.7403C0.661248 31.2221 3.93954 32.6375 6.90894 34.591ZM6.90894 34.591C11.8911 37.8702 17.5111 39.8935 22.7424 42.8537C27.9737 45.8139 32.6769 49.4519 35.9652 54.3058L36.0349 54.3656C37.1755 56.0578 38.4878 57.6276 39.9509 59.0501C40.7844 59.9635 41.8019 60.6899 42.9364 61.1813C44.0709 61.6727 45.2967 61.918 46.5329 61.9011C47.7691 61.8841 48.9877 61.6053 50.1083 61.083C51.2289 60.5606 52.2261 59.8066 53.0342 58.8707C54.8477 56.678 54.6783 54.5749 55.5054 52.0732C56.3324 49.5715 58.0164 48.2558 59.8897 46.6711C63.6737 43.6792 66.3753 39.5312 67.5823 34.8601C68.9573 30.0261 68.4292 25.4413 68.9573 20.5474C69.5688 15.9822 71.189 11.6105 73.7004 7.74976C71.1714 11.6062 69.5341 15.9782 68.9075 20.5474C68.3794 25.4413 68.9075 30.0261 67.5324 34.8601C66.336 39.5259 63.6489 43.6731 59.8798 46.6711C58.0064 48.2558 56.2926 49.6612 55.4954 52.0732C54.6983 54.4852 54.8378 56.678 53.0242 58.8707C52.2162 59.805 51.2195 60.5576 50.0998 61.0789C48.9801 61.6002 47.7628 61.8785 46.5278 61.8955C45.2929 61.9124 44.0684 61.6676 42.9348 61.1772C41.8012 60.6868 40.7843 59.9619 39.9509 59.0501C38.5162 57.6268 37.2307 56.0605 36.1146 54.3756" stroke="white" stroke-width="0.36" stroke-linecap="round" stroke-linejoin="round"/>
</g>
</g>
</g>
<defs>
<clipPath id="clip0_1624_349">
<rect width="72" height="72" fill="white"/>
</clipPath>
<clipPath id="clip1_1624_349">
<rect width="72" height="72" fill="white"/>
</clipPath>
<clipPath id="clip2_1624_349">
<rect width="75.6" height="75.6" fill="white" transform="translate(-1.80005 -1.80005)"/>
</clipPath>
</defs>
</svg>
