<svg width="72" height="72" viewBox="0 0 72 72" fill="none" xmlns="http://www.w3.org/2000/svg">
<g clip-path="url(#clip0_1624_349)">
<g clip-path="url(#clip1_1624_349)">
<g clip-path="url(#clip2_1624_349)">
<path d="M73.6804 29.0366C72.0357 32.7378 68.9853 43.0533 67.9088 45.2181C66.774 47.684 65.9889 50.2964 65.5762 52.9796C65.5762 56.8304 65.3768 64.3725 63.3532 66.0685C59.4456 69.2908 53.0559 68.1036 48.8891 65.9487C45.6893 64.3525 45.1111 60.5616 43.1075 57.9677C41.7817 56.611 40.0572 56.192 38.7513 57.7383C37.4455 59.2846 37.7545 60.791 37.7545 62.5668C38.213 77.7107 26.1812 63.8637 20.3796 73.7202" stroke="white" stroke-width="1.08" stroke-miterlimit="10"/>
<path d="M68.4071 73.7301C69.2636 72.5549 69.7181 71.1343 69.7029 69.6798C69.4836 67.1458 68.7061 64.6917 68.4768 62.0978C67.9086 56.7206 70.1216 52.1815 72.4642 47.4627L73.7202 44.8589" stroke="white" stroke-width="1.08" stroke-miterlimit="10"/>
<path d="M73.6804 21.4946L73.6206 21.5844C71.825 23.6868 70.2578 25.9742 68.9454 28.4082C67.7193 31.0319 67.6097 34.0248 67.0415 36.7782C66.4712 39.5268 65.7592 42.244 64.9082 44.9189C64.051 47.6523 62.5059 50.1664 61.9177 52.9597C61.3296 55.7531 62.4859 58.6561 61.9177 61.3896C61.1502 64.9312 57.1927 64.3227 54.8601 62.8063C52.5275 61.2899 50.7233 59.0851 48.7296 57.2595C46.7359 55.4338 44.0943 53.8676 42.1405 51.7526C40.1867 49.6376 40.1568 46.5849 38.6018 44.1806C38.1979 43.5845 37.6699 43.0829 37.054 42.7104C36.4381 42.3379 35.7489 42.1033 35.0338 42.0227C34.3186 41.9421 33.5945 42.0175 32.9113 42.2436C32.228 42.4697 31.6018 42.8413 31.0756 43.3326C28.9923 45.1982 28.8029 48.5901 28.5537 51.1839C28.2938 54.0457 27.5594 56.8441 26.3805 59.4642C25.1445 62.098 23.2305 63.8039 21.0774 65.6894C18.9737 67.6096 17.2433 69.9029 15.9736 72.4533C15.7543 72.8723 15.5549 73.3013 15.3456 73.7303" stroke="white" stroke-width="1.08" stroke-miterlimit="10"/>
<path d="M-1.68042 5.09366C-0.10542 2.9787 1.5593 0.943544 3.33366 -1.00182L3.97164 -1.69019" stroke="white" stroke-width="1.08" stroke-miterlimit="10"/>
<path d="M-1.68042 64.2427C-1.30376 62.4646 -0.686688 60.7461 0.153757 59.1348C0.977005 57.7222 1.98248 56.4241 3.14426 55.274C4.26072 54.1068 5.62638 53.6778 6.3142 52.1215C6.97379 50.7348 7.30688 49.2151 7.28787 47.6793C7.26886 46.1436 6.89826 44.6326 6.20455 43.2626C5.05917 40.4115 3.76141 37.6241 2.31689 34.9125C1.65405 33.5251 0.827422 32.2222 -0.145293 31.0318C-0.544028 30.6227 -1.25178 30.3234 -1.68042 29.8745" stroke="white" stroke-width="1.08" stroke-miterlimit="10"/>
<path d="M73.6804 7.75732C71.3977 11.5184 68.9255 15.1397 67.3804 19.3198C65.3868 24.7569 64.4497 30.4034 62.9345 35.9702C61.6586 40.639 59.1565 48.2908 53.963 49.887C52.5702 50.2186 51.1235 50.2549 49.7158 49.9938C48.3081 49.7327 46.9705 49.1798 45.789 48.3706C43.3368 46.6647 42.5094 43.8614 40.9045 41.4571C40.107 40.2699 39.16 39.1825 38.3027 38.0452C37.4455 36.9079 36.8075 35.4215 35.4219 35.0523C33.9956 34.8535 32.5538 34.7901 31.1155 34.8628C29.6655 34.8111 28.2137 34.8545 26.7693 34.9925C23.42 35.3117 21.3665 36.6485 21.0176 40.1402C20.7385 42.9835 20.878 45.8367 20.4394 48.6599C20.0182 51.4824 19.0461 54.1942 17.5785 56.6409C16.0633 59.1051 13.8603 60.9607 12.2853 63.335C10.7103 65.7093 10.2119 68.5526 9.55399 71.316C9.37456 72.0941 9.18517 72.8723 8.97583 73.6504" stroke="white" stroke-width="1.08" stroke-miterlimit="10"/>
<path d="M3.37354 73.7302C3.45764 73.3549 3.52087 72.9752 3.56293 72.5929C3.90186 69.5003 3.75233 66.1882 4.55977 63.1554C5.43698 59.8233 8.268 58.4765 10.4212 56.1221C12.6632 53.777 14.0926 50.7727 14.4982 47.5525C14.9568 41.2675 8.25803 35.8903 10.9794 29.5953C12.2354 26.6024 15.9636 25.4152 18.8743 24.9763C22.2237 24.4675 24.8553 26.353 27.6066 27.9692C30.3579 29.5853 33.3284 30.543 36.0398 32.0993C38.9506 33.7753 40.7748 36.0898 42.9579 38.5739C45.1409 41.058 46.8455 43.7416 50.3743 43.3426C53.6141 42.9635 56.2158 40.3497 57.7509 37.6661C60.8212 32.2689 61.3794 25.6247 60.7414 19.5592C60.3726 16.0874 60.4025 13.3839 62.3663 10.3311C64.0509 7.71737 66.1044 5.34303 67.6694 2.65942C68.4563 1.27785 69.149 -0.155342 69.7428 -1.63037" stroke="white" stroke-width="1.08" stroke-miterlimit="10"/>
<path d="M62.3862 -1.69019C61.4822 -0.0911923 60.3543 1.37016 59.0368 2.64948C56.7344 4.73185 54.6441 7.03768 52.7966 9.53309C51.9004 10.7967 51.3756 12.2862 51.2815 13.8329C51.2815 15.5587 52.3281 16.5663 53.3748 17.7635C55.4767 20.1576 56.6972 23.199 56.8338 26.383C57.093 32.0196 52.8465 40.5093 46.0182 36.8979C43.3068 35.4614 41.5224 32.5682 39.1101 30.7127C36.6164 28.9858 34.2419 27.0927 32.0027 25.0462C29.8293 22.7769 28.1342 20.0933 27.0185 17.1549C25.9618 14.611 24.4765 10.3811 20.8381 11.7977C17.728 13.0148 18.0868 17.4542 14.8571 18.5217C13.4316 19.0006 11.8666 18.9606 10.3813 19.3697C8.86065 19.7992 7.40034 20.4193 6.03509 21.2153C3.36271 22.7246 0.996053 24.7209 -0.942757 27.1013C-1.18794 27.4029 -1.41432 27.7195 -1.62061 28.049" stroke="white" stroke-width="1.08" stroke-miterlimit="10"/>
<path d="M-1.68042 18.0628C-0.587125 16.7933 0.584804 15.5937 1.82844 14.4713C4.16104 12.3564 6.73287 10.4808 9.10534 8.48559C11.4778 6.49034 13.9599 4.11599 16.9205 2.67941C19.6618 1.25281 23.1707 0.31504 26.2011 1.3825C29.6302 2.57965 30.627 4.66468 30.8264 7.9768C30.8789 11.1811 31.4132 14.3593 32.4114 17.4044C33.5577 20.6067 35.5315 23.001 37.7345 25.515C39.8202 27.8734 42.0543 30.096 44.4232 32.1692C47.1546 34.5635 50.8628 34.3839 52.5574 30.8424C53.953 27.9293 52.6371 24.288 51.2117 21.6642C49.6367 18.7911 47.8424 16.0875 47.3639 12.7654C46.7678 9.58634 47.3489 6.29882 48.9987 3.51742C49.8634 2.13396 50.917 0.878126 52.1288 -0.213701C52.8464 -0.840132 53.6656 -1.33945 54.5511 -1.69019" stroke="white" stroke-width="1.08" stroke-miterlimit="10"/>
</g>
<path d="M36.2158 14.5484C35.082 11.0105 38.6526 6.48487 41.4077 10.6981C42.1592 12.1993 42.6568 13.8177 42.8797 15.4858C43.8744 18.6406 45.8636 21.3923 47.087 24.4766C47.8429 26.17 49.3945 28.4479 48.8673 29.2341C47.4152 31.7338 45.3166 28.4681 44.5905 27.3291C43.5959 25.7063 41.6663 25.0008 40.612 23.4082C39.2394 20.4852 37.3795 17.5823 36.2158 14.5484Z" stroke="white" stroke-width="1.08" stroke-miterlimit="10"/>
</g>
</g>
<defs>
<clipPath id="clip0_1624_349">
<rect width="72" height="72" fill="white"/>
</clipPath>
<clipPath id="clip1_1624_349">
<rect width="72" height="72" fill="white"/>
</clipPath>
<clipPath id="clip2_1624_349">
<rect width="75.6" height="75.6" fill="white" transform="translate(-1.80005 -1.80005)"/>
</clipPath>
</defs>
</svg>
