<svg width="72" height="72" viewBox="0 0 72 72" fill="none" xmlns="http://www.w3.org/2000/svg">
<g clip-path="url(#clip0_1624_267)">
<g clip-path="url(#clip1_1624_267)">
<g clip-path="url(#clip2_1624_267)">
<g clip-path="url(#clip3_1624_267)">
<path d="M-60.0298 68.1412L68.0187 -60.3895" stroke="white" stroke-width="0.36"/>
<path d="M-55.792 72.4052L72.2665 -56.1356" stroke="white" stroke-width="0.36"/>
<path d="M-51.5441 76.659L76.5044 -51.8717" stroke="white" stroke-width="0.36"/>
<path d="M-47.3062 80.9229L80.7523 -47.6179" stroke="white" stroke-width="0.36"/>
<path d="M-43.0582 85.1767L84.9902 -43.354" stroke="white" stroke-width="0.36"/>
<path d="M-38.8203 89.4407L89.2382 -39.1001" stroke="white" stroke-width="0.36"/>
<path d="M-34.5724 93.7046L93.4861 -34.8362" stroke="white" stroke-width="0.36"/>
<path d="M-30.3245 97.9585L97.724 -30.5723" stroke="white" stroke-width="0.36"/>
<path d="M-26.0867 102.222L101.972 -26.3185" stroke="white" stroke-width="0.36"/>
<path d="M-21.8387 106.476L106.21 -22.0546" stroke="white" stroke-width="0.36"/>
<path d="M-17.6008 110.74L110.458 -17.8008" stroke="white" stroke-width="0.36"/>
<path d="M-13.3529 114.994L114.696 -13.5366" stroke="white" stroke-width="0.36"/>
<path d="M-9.11499 119.258L118.943 -9.28296" stroke="white" stroke-width="0.36"/>
<path d="M-4.86707 123.512L123.181 -5.01904" stroke="white" stroke-width="0.36"/>
<path d="M-0.62915 127.776L127.429 -0.765137" stroke="white" stroke-width="0.36"/>
<path d="M3.61865 132.029L131.667 3.49878" stroke="white" stroke-width="0.36"/>
</g>
</g>
</g>
</g>
<defs>
<clipPath id="clip0_1624_267">
<rect width="72" height="72" fill="white"/>
</clipPath>
<clipPath id="clip1_1624_267">
<rect width="72" height="72" fill="white"/>
</clipPath>
<clipPath id="clip2_1624_267">
<rect width="72" height="72" fill="white"/>
</clipPath>
<clipPath id="clip3_1624_267">
<rect width="192.6" height="192.6" fill="white" transform="translate(-60.12 -60.48)"/>
</clipPath>
</defs>
</svg>
