<svg width="607" height="405" viewBox="0 0 607 405" fill="none" xmlns="http://www.w3.org/2000/svg">
<rect x="607" width="202.287" height="202.333" transform="rotate(90 607 0)" fill="#D98BC3"/>
<g clip-path="url(#clip0_1260_15258)">
<path d="M3.59696 76.4195C4.44001 75.4643 5.28308 74.5091 6.06993 73.4976L8.76768 69.9576L10.9596 67.0919L13.545 63.3271L15.5121 60.4052L18.0413 56.1908C18.5471 55.2918 19.1654 54.3927 19.6712 53.3813L22.4814 48.0432L23.6616 45.7393C24.8419 43.0422 26.0222 40.1203 27.0901 37.3669L31.5864 25.6792L33.0476 21.9706L35.9703 14.2163L37.7126 9.94576L40.4103 3.14667L41.6468 -1.58681e-05L38.6118 -1.60007e-05L37.4877 2.69714L33.1039 13.5982L30.5747 20.0039L28.6638 24.8925C27.2025 28.7135 25.685 32.5345 24.2799 36.4117C23.212 39.165 22.088 42.0307 20.9077 44.3908C20.5705 45.2336 20.1208 46.0203 19.7274 46.8632L17.2544 51.7518C16.7486 52.707 16.1866 53.6061 15.6245 54.5051C15.0625 55.4042 14.107 57.2585 13.264 58.607L11.353 61.4166L8.88011 65.069L6.80056 67.8223L4.15898 71.3062L1.91083 74.0595L-0.0562876 76.4195L-0.0562878 80.69L0.674387 79.8472L3.59696 76.4195Z" fill="#851178"/>
<path d="M208.796 39.7269C198.426 56.3075 189.206 73.5799 181.2 91.4225C175.243 103.897 169.117 116.765 162.147 129.07C143.263 162.448 122.299 186.778 98.019 203.298C90.144 208.303 82.8326 214.143 76.212 220.718L71.4347 225.101L68.3435 228.36C63.6946 233.378 60.1122 239.287 57.8131 245.729C55.5139 252.171 54.5457 259.012 54.9671 265.839C55.3504 272.577 57.103 279.166 60.1179 285.204C63.1328 291.242 67.3468 296.602 72.5026 300.958C80.0889 306.862 89.1084 310.643 98.6373 311.915C102.909 312.771 107.13 313.859 111.283 315.174C124.21 319.445 131.854 328.492 140.734 338.943L141.183 339.505C158.305 361.041 181.983 376.408 208.628 383.278C225.633 387.483 243.099 389.541 260.616 389.403C270.002 389.74 279.725 390.021 289.505 391.088C305.669 393.181 321.419 397.729 336.21 404.574L342.842 404.574C342.674 404.553 342.504 404.553 342.336 404.574C341.774 404.237 341.156 404.012 340.594 403.731L338.065 402.551C338.065 402.551 338.065 402.551 337.784 402.551C322.564 395.457 306.333 390.775 289.673 388.672C279.782 387.604 270.002 387.324 260.56 386.986C243.251 387.159 225.991 385.139 209.19 380.974C183.049 374.203 159.887 358.969 143.319 337.651L142.87 337.145C134.102 326.806 126.008 317.029 112.182 312.477C107.937 311.154 103.621 310.066 99.2555 309.218C90.1852 307.943 81.5934 304.364 74.3011 298.823C69.4457 294.703 65.4776 289.64 62.6373 283.941C59.7969 278.243 58.1435 272.027 57.7772 265.67C57.3884 259.244 58.3033 252.805 60.4668 246.741C62.6303 240.677 65.9978 235.112 70.3669 230.382L73.4019 227.236L78.123 222.853C84.6415 216.512 91.7988 210.863 99.4803 205.996C124.154 189.138 145.455 164.639 164.564 130.812C171.533 118.45 177.716 105.526 183.673 93.052C191.621 75.3028 200.785 58.1237 211.101 41.6374C214.585 36.4117 217.733 30.905 220.824 25.623C225.776 16.7854 231.414 8.34961 237.685 0.393329L234.032 0.393329C228.409 7.99572 223.283 15.954 218.688 24.2182C215.428 29.1069 212.225 34.5012 208.796 39.7269Z" fill="#851178"/>
<path d="M167.993 404.125C155.633 403.594 143.436 401.11 131.854 396.764C122.71 392.251 114.268 386.44 106.787 379.513C98.3759 371.618 88.7075 365.18 78.1792 360.464C71.0019 357.983 63.6584 356.012 56.2035 354.564C35.4082 349.9 9.83555 344.113 -8.3129e-05 330.908L-8.33181e-05 335.235C11.6903 347.428 35.8578 352.879 55.6977 357.318C63.0437 358.717 70.2906 360.594 77.3923 362.937C87.6219 367.572 97.0205 373.855 105.213 381.536C112.813 388.619 121.386 394.579 130.673 399.236C136.488 401.739 142.583 403.531 148.827 404.574L172.714 404.574C171.14 404.574 169.566 404.237 167.993 404.125Z" fill="#851178"/>
<path d="M-6.86646e-05 -1.76885e-05L-6.87038e-05 0.899036L0.561959 -1.76639e-05L-6.86646e-05 -1.76885e-05Z" fill="#851178"/>
<path d="M404.666 313.938L404.666 291.406C402.501 285.787 399.77 280.402 396.516 275.335C391.795 267.974 386.962 261.007 382.297 254.32C370.213 237.125 358.804 220.605 351.891 198.972C350.373 194.196 349.081 189.082 347.732 183.632C342.111 160.537 335.367 134.352 309.738 128.003C256.007 114.629 186.652 207.906 166.756 236.788C163.176 241.301 161.199 246.875 161.136 252.634C161.155 254.6 161.381 256.559 161.81 258.478C167.431 282.64 204.862 302.138 212.393 305.791C239.09 318.939 268.597 320.344 297.261 321.636L300.633 321.636C305.691 321.636 312.323 322.648 320.023 323.491C350.823 327.256 393.425 331.976 404.666 313.938ZM320.361 321.018C312.604 320.175 305.916 319.389 300.802 319.164L297.373 319.164C269.271 317.872 239.765 316.523 213.686 303.599C193.734 293.766 168.723 275.953 164.733 258.197C163.899 254.808 163.866 251.271 164.637 247.868C165.408 244.464 166.961 241.286 169.173 238.586C247.015 125.53 295.912 127.441 309.12 130.7C333.063 136.712 339.47 161.998 345.034 184.306C346.439 189.925 347.732 194.982 349.249 199.815C356.331 222.291 367.853 238.53 380.049 256.006C384.658 262.636 389.491 269.716 394.1 276.852C395.28 278.65 396.235 280.392 397.191 282.078L397.865 283.258L400.226 287.866L400.226 288.147C400.9 289.72 401.519 291.181 402.024 292.642L402.418 293.653C402.811 294.946 403.205 296.182 403.486 297.418L403.486 297.868C403.747 299.129 403.935 300.405 404.048 301.689L404.048 304.554C404.006 305.557 403.874 306.554 403.654 307.533C403.712 307.961 403.712 308.396 403.654 308.825C403.325 310.108 402.814 311.338 402.137 312.477C391.795 328.997 348.462 324.221 320.361 321.018Z" fill="#851178"/>
<path d="M229.648 254.095C229.842 250.079 230.956 246.161 232.905 242.644C234.854 239.127 237.586 236.104 240.889 233.81C241.162 233.72 241.458 233.72 241.732 233.81C252.41 233.81 262.134 240.216 263.82 248.476C265.281 255.275 261.066 261.287 252.579 265.333C243.193 269.379 235.381 268.143 231.784 261.906C230.327 259.565 229.584 256.851 229.648 254.095ZM242.125 236.395C232.739 243.644 230.547 254.264 233.919 260.051C236.786 264.996 243.081 265.67 251.174 262.299C259.267 258.927 262.134 254.207 261.01 248.869C259.632 245.029 257.048 241.739 253.644 239.49C250.239 237.241 246.198 236.155 242.125 236.395Z" fill="#851178"/>
<path d="M404.666 15.2277C403.823 15.2277 402.98 14.722 402.137 14.441C401.624 14.3171 401.117 14.1671 400.619 13.9915C398.765 13.4296 396.91 12.8677 394.999 12.2496C394.268 12.2496 393.481 11.7439 392.695 11.4629C391.908 11.182 389.491 10.4515 387.917 9.88959L385.22 8.87815C383.758 8.31625 382.297 7.81053 380.892 7.24862C379.487 6.68671 378.981 6.40576 378.025 6.01242C377.07 5.61908 375.328 4.8886 373.979 4.2705L370.944 2.86573L367.178 0.899052L365.829 -1.69761e-06L360.209 -1.94328e-06C374.101 8.1094 389.067 14.2195 404.666 18.1496L404.666 15.2277Z" fill="#851178"/>
<path d="M318.056 1.7981C317.382 1.18 316.651 0.618096 315.92 -3.87919e-06L311.593 -4.06836e-06L316.258 3.93336C321.617 8.65815 327.247 13.0672 333.119 17.1382C355.263 31.5793 380.33 40.0641 404.666 48.2679L404.666 45.346C380.836 37.2545 356.218 28.8821 334.636 14.7782C328.866 10.7723 323.33 6.43844 318.056 1.7981Z" fill="#851178"/>
<path d="M401.462 228.528L400.282 226.842C399.102 225.101 397.922 223.302 396.854 221.561C385.869 203.663 377.93 184.067 373.361 163.572C372.349 158.908 371.674 154.188 371.056 149.58C370.331 138.269 367.024 127.274 361.389 117.439C346.046 94.0635 308.502 73.3853 279.22 81.0834C256.064 87.152 240.72 108.898 227.175 128.059C223.128 133.678 219.306 139.297 215.372 144.017C187.27 178.912 164.227 206.782 142.307 231.619C131.067 238.699 125.446 246.846 125.446 255.781C125.446 278.707 162.26 301.295 184.123 314.781L187.832 317.029C218.969 336.358 251.455 340.966 285.852 345.799C293.439 346.866 301.308 347.934 309.12 349.226C314.066 350.013 318.955 350.968 323.733 352.092C325.363 352.485 326.936 352.991 328.566 353.44C331.657 354.227 334.749 355.014 337.784 355.913C339.695 356.531 341.493 357.261 343.404 357.936C345.315 358.61 348.743 359.678 351.329 360.745C353.914 361.813 355.151 362.431 356.949 363.218C358.748 364.004 361.895 365.297 364.312 366.477C366.729 367.657 368.134 368.556 369.932 369.567C371.731 370.579 374.428 371.871 376.677 373.163C378.925 374.456 380.498 375.58 382.297 376.816C384.095 378.052 386.512 379.401 388.536 380.805C390.559 382.21 392.301 383.615 394.156 385.02C396.011 386.424 398.09 387.829 399.776 389.346C401.462 390.864 402.418 391.706 403.767 392.83L403.767 389.178C402.755 388.279 401.743 387.38 400.676 386.537C398.596 384.907 396.516 383.39 394.381 381.817L389.154 377.996C386.962 376.535 384.714 375.13 382.466 373.725C380.217 372.321 378.925 371.422 376.845 370.41C374.766 369.399 372.18 367.825 369.82 366.589C367.459 365.353 366.11 364.622 364.199 363.723C362.288 362.824 359.197 361.476 356.668 360.408C354.139 359.341 352.959 358.722 351.048 357.992C349.137 357.261 345.427 356.025 342.954 355.126C341.1 354.452 339.301 353.778 337.334 353.16C334.299 352.204 331.152 351.474 328.06 350.631C326.431 350.238 324.857 349.732 323.171 349.339C318.393 348.215 313.56 347.259 308.558 346.417C300.745 345.18 292.877 344.057 285.233 342.989C251.174 338.213 218.969 333.661 188.282 314.894L184.573 312.59C163.215 299.441 127.414 277.358 127.245 256.006C127.245 248.026 132.416 240.665 142.701 234.091C142.701 234.091 142.701 234.091 142.982 234.091L151.3 224.595C170.859 202.118 191.767 176.945 216.271 146.321C220.262 141.376 224.084 135.926 228.187 130.194C241.451 111.426 256.288 90.1301 278.77 84.2863C306.872 76.9253 343.011 96.9292 357.848 119.462C363.282 128.948 366.437 139.566 367.066 150.479C367.74 155.143 368.415 159.919 369.426 164.695C374.504 185.378 382.954 205.084 394.437 223.021L398.09 228.641L399.776 230.944L402.193 234.316L404.104 236.732L404.666 237.463L404.666 232.911L404.048 232.124L401.462 228.528Z" fill="#851178"/>
<path d="M316.595 270.222C326.936 250.162 315.92 210.491 300.127 195.488C275.791 172.45 245.497 193.634 223.409 209.142L216.159 214.143C203.007 227.854 199.017 239.823 199.017 249.319C199.028 253.532 199.828 257.706 201.378 261.625C208.796 280.28 233.751 294.271 262.021 295.339C287.144 297.081 307.659 287.472 316.595 270.222ZM203.738 260.726C203.071 259.054 202.563 257.323 202.221 255.556C199.691 243.25 205.031 229.821 217.845 216.222L224.814 211.446C247.296 195.657 275.398 176.046 297.879 197.567C299.172 198.792 300.357 200.127 301.42 201.557L302.319 202.737C303.402 204.135 304.397 205.598 305.298 207.119L305.691 207.625C306.703 209.423 307.715 211.278 308.67 213.244L309.345 214.761C310.132 216.447 310.862 218.133 311.537 219.931L311.986 220.999C312.717 223.078 313.448 225.269 314.066 227.404L314.515 228.978C315.021 230.776 315.471 232.63 315.808 234.597L316.145 235.945C316.539 238.193 316.876 240.384 317.101 242.576L317.101 243.868L317.438 249.487L317.438 254.095C317.438 254.769 317.438 255.444 317.438 256.062C317.366 257.061 317.234 258.056 317.045 259.04L317.045 260.782L316.258 263.816L315.864 265.165C315.429 266.545 314.865 267.88 314.178 269.154C305.748 285.393 286.076 294.44 262.021 293.204C234.706 291.687 210.82 278.426 203.738 260.726Z" fill="#851178"/>
<path d="M363.918 66.4176C335.536 47.2565 294.563 27.084 260.504 40.2326C232.402 50.9651 217.901 80.4653 203.85 108.954C198.263 121.087 191.782 132.788 184.46 143.961C174.4 158.346 163.047 172.056 152.087 185.711C147.984 190.712 143.825 195.769 139.778 200.826C130.104 212.482 118.579 222.467 105.663 230.382C101.672 233.136 97.5132 236.002 93.0169 239.261C91.8066 240.403 90.7145 241.664 89.7571 243.025L89.0265 244.205C88.4644 245.161 87.9024 246.06 87.4528 247.015L86.9469 248.476C86.6075 249.351 86.3442 250.253 86.1601 251.173L86.1601 252.859C86.1601 253.477 86.1601 254.095 86.1601 254.713L86.1601 256.118C86.8907 266.288 95.4337 277.302 111.452 288.933C132.753 304.442 153.436 320.288 170.859 333.38C201.715 356.924 234.594 361.476 269.44 366.589C278.601 367.881 288.1 369.23 297.542 370.972C301.982 371.759 306.366 372.714 310.694 373.782C312.042 374.119 313.391 374.568 314.796 374.962C317.663 375.748 320.417 376.535 323.396 377.434C325.025 377.94 326.599 378.614 328.229 379.176C330.702 380.075 333.231 380.918 335.704 381.929C338.177 382.941 339.02 383.39 340.706 384.121C342.392 384.851 345.315 386.087 347.563 387.211C349.811 388.335 350.879 388.953 352.565 389.852C354.251 390.751 356.893 392.1 359.029 393.336C361.164 394.572 362.288 395.359 363.918 396.426C365.548 397.494 368.021 398.955 369.988 400.304C371.955 401.652 373.192 402.607 374.766 403.731L376.002 404.574L380.723 404.574L377.632 402.27C376.002 401.034 374.372 399.742 372.686 398.562C371 397.382 368.302 395.752 366.167 394.404C364.031 393.055 363.019 392.325 361.389 391.369C359.759 390.414 356.668 388.728 354.083 387.717C352.565 386.874 351.048 385.975 349.474 385.244C347.001 384.008 344.416 382.884 341.83 381.761C340.313 381.086 338.852 380.356 337.278 379.738C334.58 378.614 331.657 377.659 329.072 376.703C327.611 376.198 326.15 375.58 324.632 375.074C321.709 374.119 318.674 373.332 315.639 372.489C314.291 372.096 312.942 371.646 311.537 371.309C307.097 370.185 302.6 369.23 298.048 368.387C288.381 366.645 278.882 365.297 269.946 364.004C235.493 359.116 202.951 354.452 172.657 331.357C155.291 318.096 134.551 302.419 112.857 286.405C97.738 275.504 89.4199 264.884 88.7454 255.725C88.6111 252.99 89.0975 250.26 90.1681 247.739C91.2388 245.219 92.866 242.974 94.9278 241.171C99.2555 238.024 103.358 235.215 107.349 232.518C120.485 224.498 132.219 214.381 142.083 202.568C146.129 197.511 150.288 192.454 154.391 187.396C165.351 173.911 176.873 159.975 186.877 145.534C194.283 134.236 200.839 122.403 206.492 110.134C220.262 82.0386 234.594 53.1565 261.628 42.705C294.563 30.0621 334.693 49.8413 362.457 68.609C387.524 85.4663 389.491 107.212 391.514 130.419C391.929 146.732 395.597 162.799 402.305 177.675L404.666 181.946L404.666 176.327C398.223 161.832 394.672 146.218 394.212 130.363C392.076 106.763 390.109 84.2863 363.918 66.4176Z" fill="#851178"/>
<path d="M186.708 8.42862C184.966 12.6991 183.28 17.082 181.65 21.4087L181.2 22.7573C179.627 27.2526 178.109 31.7478 176.648 36.2431L176.254 37.3107L171.927 50.9651C167.487 65.2376 162.878 79.9596 157.033 94.0073C141.521 131.206 113.419 155.143 83.9681 180.485C78.3478 185.374 72.7274 190.318 66.7136 195.376C45.7497 213.525 13.2078 249.431 -8.11125e-05 284.775L-8.15055e-05 293.766C10.6786 256.399 46.2555 216.897 68.2873 197.455C73.9077 192.397 79.528 187.509 85.4856 182.62C115.498 157.334 143.881 132.891 159.618 95.0749C165.52 80.9148 170.184 66.1366 174.625 51.808L179.233 37.3107L179.233 36.9174C180.882 32.085 182.549 27.2713 184.235 22.4763L184.235 21.8582C185.922 17.1944 187.776 12.5306 189.856 7.9229L190.193 7.19242C191.092 4.8324 192.385 2.4162 193.509 -9.22997e-06L190.586 -9.35772e-06C189.519 2.30382 188.338 4.55145 187.383 6.85527L186.708 8.42862Z" fill="#851178"/>
<path d="M41.8716 187.228C53.6182 176.833 65.7582 166.1 78.685 156.211C103.977 136.488 127.863 117.888 137.811 85.1291C142.195 70.8005 145.455 56.4156 148.659 42.5365L152.368 26.5221L154.504 16.8572C154.841 15.3963 155.291 13.9353 155.684 12.4744C156.415 9.88958 157.089 7.19242 157.876 4.60764L159.393 -1.07212e-05L156.471 -1.0849e-05C155.965 1.46095 155.459 2.92191 155.066 4.38288C154.279 6.96765 153.548 9.60863 152.874 12.2496L151.75 16.8572L149.502 25.9602L148.659 29.444L145.736 42.1993C142.532 56.0223 139.272 70.2947 134.945 84.5672C125.222 116.484 101.672 135.139 76.7741 154.244C64.0158 164.19 51.8196 174.978 40.0731 185.43C30.2375 194.139 20.0646 203.13 9.66695 211.502C6.40714 214.125 3.20354 216.653 0.0561374 219.088L0.0561372 222.684C3.76558 219.819 7.58742 217.065 11.2969 213.694C21.8069 204.984 32.036 195.937 41.8716 187.228Z" fill="#851178"/>
<path d="M17.5916 171.719C27.0901 163.909 36.5885 156.042 46.1431 148.231L50.5832 144.467C66.5522 132.506 80.9424 118.572 93.4103 102.998C97.3979 97.5586 100.878 91.7655 103.808 85.691C110.913 69.3158 115.699 52.0298 118.028 34.3326C119.754 22.9661 122.137 11.7091 125.165 0.618087L125.165 -1.22174e-05L122.187 -1.23476e-05C119.147 11.0882 116.763 22.3459 115.049 33.7145C112.776 51.131 108.104 68.1495 101.166 84.2863C89.4761 108.785 69.6362 124.968 48.6723 142.107L44.0635 145.871L15.5121 169.415L-7.66447e-05 182.564L-7.68043e-05 186.216L17.5916 171.719Z" fill="#851178"/>
<path d="M26.4718 131.43C43.3329 116.877 60.8685 101.762 72.3902 81.3082C81.7875 62.7122 88.595 42.9179 92.6235 22.4763C93.8038 17.5877 95.0403 12.5867 96.3329 7.64194L97.6256 3.37144L98.5811 -1.33794e-05L95.5461 -1.35121e-05L94.703 2.9781L93.4666 7.3048L89.9257 21.9706C85.9739 42.118 79.2797 61.6291 70.0296 79.9596C58.7889 99.9635 41.422 114.91 24.6733 129.351C20.6267 132.835 16.5238 136.375 12.4771 140.028L7.4188 144.579L2.97871 148.737L1.91083 149.692L0.0561403 151.378L0.0561402 155.143C3.37215 152.221 6.46333 149.524 9.38592 146.658C14.8939 141.432 20.7953 136.375 26.4718 131.43Z" fill="#851178"/>
<path d="M50.5832 59.6185C52.1007 56.6966 53.4496 53.6622 54.7423 50.5156C60.3626 36.1869 65.3647 21.1839 69.9172 6.63051L72.2216 -1.45316e-05L69.299 -1.46594e-05L67.4443 5.61907C62.8918 20.1163 58.2269 35.0631 52.3817 49.2794C42.2651 73.891 26.0784 91.8158 5.9575 112.663L-7.38717e-05 119.125L-7.4051e-05 123.227L7.98083 114.798C25.7974 96.3673 40.5227 80.1843 50.5832 59.6185Z" fill="#851178"/>
</g>
<g clip-path="url(#clip1_1260_15258)">
<rect width="202.287" height="202.333" transform="translate(607 201.861) rotate(90)" fill="#B14092"/>
<path d="M606.494 201.861L607 202.367L607 201.861L606.494 201.861Z" fill="white"/>
<path d="M607 226.164L607 225.152L583.704 201.861L582.692 201.861L607 226.164Z" fill="white"/>
<path d="M607 249.961L607 248.949L559.901 201.861L558.89 201.861L607 249.961Z" fill="white"/>
<path d="M607 273.758L607 272.746L536.099 201.861L535.087 201.861L607 273.758Z" fill="white"/>
<path d="M607 297.554L607 296.543L512.297 201.861L511.285 201.861L607 297.554Z" fill="white"/>
<path d="M607 321.351L607 320.368L488.467 201.861L487.483 201.861L607 321.351Z" fill="white"/>
<path d="M607 345.148L607 344.165L464.664 201.861L463.681 201.861L607 345.148Z" fill="white"/>
<path d="M607 368.945L607 367.961L440.862 201.861L439.879 201.861L607 368.945Z" fill="white"/>
<path d="M607 392.742L607 391.758L417.06 201.861L416.076 201.861L607 392.742Z" fill="white"/>
<path d="M594.607 404.148L595.591 404.148L404.667 213.268L404.667 214.251L594.607 404.148Z" fill="white"/>
<path d="M570.805 404.148L571.788 404.148L404.667 237.065L404.667 238.048L570.805 404.148Z" fill="white"/>
<path d="M547.003 404.148L547.986 404.148L404.667 260.862L404.667 261.845L547.003 404.148Z" fill="white"/>
<path d="M523.2 404.148L524.184 404.148L404.667 284.659L404.667 285.642L523.2 404.148Z" fill="white"/>
<path d="M499.37 404.148L500.382 404.148L404.667 308.455L404.667 309.467L499.37 404.148Z" fill="white"/>
<path d="M475.568 404.148L476.579 404.148L404.667 332.252L404.667 333.264L475.568 404.148Z" fill="white"/>
<path d="M451.766 404.148L452.777 404.148L404.667 356.049L404.667 357.06L451.766 404.148Z" fill="white"/>
<path d="M427.963 404.148L428.975 404.148L404.667 379.846L404.667 380.857L427.963 404.148Z" fill="white"/>
<path d="M405.173 404.148L404.667 403.643L404.667 404.148L405.173 404.148Z" fill="white"/>
</g>
<defs>
<clipPath id="clip0_1260_15258">
<rect width="404.574" height="404.666" fill="white" transform="translate(404.666) rotate(90)"/>
</clipPath>
<clipPath id="clip1_1260_15258">
<rect width="202.287" height="202.333" fill="white" transform="translate(607 201.861) rotate(90)"/>
</clipPath>
</defs>
</svg>
