<svg width="203" height="405" viewBox="0 0 203 405" fill="none" xmlns="http://www.w3.org/2000/svg">
<rect x="202.334" width="202.287" height="202.333" transform="rotate(90 202.334 0)" fill="#D98BC3"/>
<g clip-path="url(#clip0_1409_22739)">
<rect width="202.287" height="202.333" transform="translate(202.334 201.861) rotate(90)" fill="#B14092"/>
<path d="M201.828 201.861L202.334 202.367L202.334 201.861L201.828 201.861Z" fill="white"/>
<path d="M202.334 226.164L202.334 225.152L179.038 201.861L178.026 201.861L202.334 226.164Z" fill="white"/>
<path d="M202.334 249.961L202.334 248.949L155.235 201.861L154.224 201.861L202.334 249.961Z" fill="white"/>
<path d="M202.334 273.758L202.334 272.746L131.433 201.861L130.421 201.861L202.334 273.758Z" fill="white"/>
<path d="M202.334 297.554L202.334 296.543L107.631 201.861L106.619 201.861L202.334 297.554Z" fill="white"/>
<path d="M202.334 321.351L202.334 320.368L83.8005 201.861L82.817 201.861L202.334 321.351Z" fill="white"/>
<path d="M202.334 345.148L202.334 344.165L59.9983 201.861L59.0147 201.861L202.334 345.148Z" fill="white"/>
<path d="M202.334 368.945L202.334 367.961L36.1961 201.861L35.2125 201.861L202.334 368.945Z" fill="white"/>
<path d="M202.334 392.742L202.334 391.758L12.3939 201.861L11.4103 201.861L202.334 392.742Z" fill="white"/>
<path d="M189.941 404.148L190.925 404.148L0.000938871 213.268L0.000938828 214.251L189.941 404.148Z" fill="white"/>
<path d="M166.139 404.148L167.122 404.148L0.00093783 237.065L0.000937787 238.048L166.139 404.148Z" fill="white"/>
<path d="M142.337 404.148L143.32 404.148L0.00093679 260.862L0.000936747 261.845L142.337 404.148Z" fill="white"/>
<path d="M118.534 404.148L119.518 404.148L0.000951187 284.659L0.000951144 285.642L118.534 404.148Z" fill="white"/>
<path d="M94.704 404.148L95.7157 404.148L0.00093471 308.455L0.000934666 309.467L94.704 404.148Z" fill="white"/>
<path d="M70.9018 404.148L71.9135 404.148L0.000918233 332.252L0.000918189 333.264L70.9018 404.148Z" fill="white"/>
<path d="M47.0996 404.148L48.1112 404.148L0.000932629 356.049L0.000932585 357.06L47.0996 404.148Z" fill="white"/>
<path d="M23.2973 404.148L24.309 404.148L0.000931589 379.846L0.000931545 380.857L23.2973 404.148Z" fill="white"/>
<path d="M0.506763 404.148L0.000930549 403.643L0.000930527 404.148L0.506763 404.148Z" fill="white"/>
</g>
<defs>
<clipPath id="clip0_1409_22739">
<rect width="202.287" height="202.333" fill="white" transform="translate(202.334 201.861) rotate(90)"/>
</clipPath>
</defs>
</svg>
