<svg width="607" height="406" viewBox="0 0 607 406" fill="none" xmlns="http://www.w3.org/2000/svg">
<rect x="607" y="1" width="202.287" height="202.333" transform="rotate(90 607 1)" fill="#8D91B2"/>
<g clip-path="url(#clip0_1353_22505)">
<path d="M76.4645 402.024C75.5092 401.181 74.554 400.338 73.5426 399.551L70.0025 396.853L67.1368 394.661L63.372 392.076L60.4501 390.109L56.2358 387.58C55.3367 387.074 54.4377 386.456 53.4262 385.95L48.0881 383.14L45.7843 381.959C43.0871 380.779 40.1652 379.599 37.4118 378.531L25.7241 374.035L22.0155 372.573L14.2612 369.651L9.9907 367.909L3.19161 365.211L0.0449219 363.974V367.009L2.74208 368.133L13.6431 372.517L20.0489 375.046L24.9375 376.957C28.7584 378.419 32.5794 379.936 36.4566 381.341C39.2099 382.409 42.0757 383.533 44.4357 384.713C45.2786 385.051 46.0652 385.5 46.9081 385.894L51.7967 388.367C52.7519 388.872 53.651 389.435 54.55 389.997C55.4491 390.559 57.3034 391.514 58.652 392.357L61.4615 394.268L65.1139 396.741L67.8673 398.821L71.3511 401.462L74.1045 403.71L76.4645 405.677H80.735L79.8921 404.947L76.4645 402.024Z" fill="#282E6C"/>
<path d="M39.7719 196.825C56.3524 207.195 73.6248 216.415 91.4674 224.421C103.942 230.378 116.81 236.504 129.115 243.474C162.493 262.358 186.823 283.322 203.343 307.602C208.348 315.477 214.188 322.788 220.763 329.409L225.145 334.186L228.405 337.278C233.423 341.926 239.331 345.509 245.774 347.808C252.216 350.107 259.057 351.075 265.884 350.654C272.622 350.271 279.211 348.518 285.249 345.503C291.287 342.488 296.647 338.274 301.003 333.118C306.907 325.532 310.688 316.513 311.96 306.984C312.816 302.712 313.904 298.491 315.219 294.338C319.49 281.411 328.537 273.767 338.988 264.887L339.55 264.438C361.085 247.316 376.453 223.638 383.323 196.993C387.528 179.988 389.586 162.522 389.448 145.005C389.785 135.619 390.066 125.896 391.133 116.116C393.226 99.9521 397.773 84.2022 404.619 69.4111V62.7791C404.598 62.947 404.598 63.1169 404.619 63.2849C404.282 63.8469 404.057 64.4652 403.776 65.0272L402.596 67.5564C402.596 67.5564 402.596 67.5564 402.596 67.8374C395.502 83.0567 390.82 99.2877 388.717 115.948C387.649 125.84 387.368 135.619 387.031 145.061C387.204 162.37 385.184 179.631 381.019 196.431C374.248 222.572 359.014 245.734 337.696 262.302L337.19 262.752C326.851 271.519 317.074 279.613 312.522 293.439C311.199 297.685 310.111 302 309.263 306.366C307.988 315.436 304.409 324.028 298.868 331.32C294.748 336.175 289.685 340.143 283.986 342.984C278.288 345.824 272.072 347.478 265.715 347.844C259.289 348.233 252.85 347.318 246.786 345.154C240.722 342.991 235.157 339.623 230.427 335.254L227.281 332.219L222.898 327.498C216.557 320.98 210.908 313.822 206.041 306.141C189.183 281.467 164.684 260.166 130.857 241.057C118.495 234.088 105.571 227.905 93.097 221.948C75.3477 214 58.1686 204.836 41.6823 194.52C36.4566 191.036 30.9499 187.888 25.668 184.797C16.8303 179.845 8.39454 174.207 0.438258 167.936V171.589C8.04065 177.213 15.9989 182.338 24.2632 186.933C29.1518 190.193 34.5461 193.396 39.7719 196.825Z" fill="#282E6C"/>
<path d="M404.17 237.629C403.639 249.988 401.155 262.186 396.809 273.767C392.296 282.911 386.485 291.354 379.558 298.834C371.663 307.245 365.225 316.914 360.509 327.442C358.028 334.619 356.057 341.963 354.609 349.418C349.945 370.213 344.158 395.786 330.953 405.621H335.28C347.473 393.931 352.923 369.763 357.363 349.923C358.762 342.577 360.639 335.33 362.982 328.229C367.617 317.999 373.9 308.601 381.581 300.408C388.663 292.808 394.624 284.235 399.281 274.948C401.784 269.133 403.576 263.038 404.619 256.794V232.907C404.619 234.481 404.282 236.055 404.17 237.629Z" fill="#282E6C"/>
<path d="M0.0449219 405.621H0.943976L0.0449219 405.059V405.621Z" fill="#282E6C"/>
<path d="M313.983 0.955078H291.451C285.832 3.12051 280.447 5.85102 275.38 9.1046C268.019 13.8257 261.051 18.6592 254.365 23.3241C237.17 35.4079 220.65 46.8172 199.017 53.7303C194.241 55.2478 189.127 56.5405 183.677 57.8893C160.582 63.5097 134.397 70.2541 128.048 95.883C114.674 149.614 207.951 218.969 236.833 238.865C241.346 242.445 246.92 244.422 252.679 244.485C254.645 244.466 256.604 244.24 258.523 243.811C282.685 238.191 302.183 200.759 305.836 193.228C318.984 166.531 320.389 137.024 321.681 108.36V104.988C321.681 99.9297 322.693 93.2976 323.536 85.5977C327.3 54.7982 332.02 12.1958 313.983 0.955078ZM321.063 85.2605C320.22 93.0166 319.434 99.7048 319.209 104.819V108.248C317.917 136.35 316.568 165.857 303.644 191.935C293.811 211.887 275.998 236.898 258.242 240.888C254.853 241.722 251.316 241.755 247.913 240.984C244.509 240.213 241.331 238.66 238.631 236.448C125.575 158.606 127.486 109.709 130.745 96.5012C136.757 72.5585 162.043 66.1513 184.351 60.5871C189.97 59.182 195.027 57.8893 199.86 56.3718C222.336 49.2902 238.575 37.7685 256.05 25.5723C262.681 20.9636 269.761 16.1301 276.897 11.5214C278.695 10.3411 280.437 9.38562 282.123 8.43016L283.303 7.75572L287.911 5.39516H288.192C289.765 4.72072 291.226 4.10248 292.687 3.59665L293.698 3.20322C294.991 2.8098 296.227 2.41637 297.463 2.13535H297.913C299.174 1.87365 300.45 1.68598 301.734 1.57332H304.599C305.602 1.61555 306.598 1.74722 307.577 1.96674C308.006 1.90886 308.441 1.90886 308.87 1.96674C310.153 2.29632 311.383 2.8073 312.522 3.48424C329.042 13.8257 324.266 57.1587 321.063 85.2605Z" fill="#282E6C"/>
<path d="M254.14 175.973C250.124 175.779 246.206 174.665 242.689 172.716C239.172 170.767 236.149 168.035 233.855 164.732C233.765 164.459 233.765 164.163 233.855 163.889C233.855 153.211 240.261 143.487 248.521 141.801C255.32 140.34 261.332 144.555 265.378 153.042C269.424 162.428 268.188 170.24 261.95 173.837C259.61 175.295 256.896 176.037 254.14 175.973ZM236.44 163.496C243.688 172.882 254.309 175.074 260.096 171.702C265.041 168.835 265.715 162.54 262.344 154.447C258.972 146.354 254.252 143.487 248.914 144.612C245.074 145.989 241.784 148.573 239.535 151.977C237.286 155.382 236.2 159.423 236.44 163.496Z" fill="#282E6C"/>
<path d="M15.2726 0.955078C15.2726 1.79813 14.7669 2.64119 14.486 3.48424C14.362 3.9974 14.212 4.50389 14.0364 5.00174C13.4745 6.85646 12.9126 8.71118 12.2945 10.6221C12.2945 11.3527 11.7888 12.1396 11.5079 12.9265C11.2269 13.7133 10.4964 16.1301 9.93451 17.7038L8.92308 20.4015C8.36117 21.8628 7.85545 23.3241 7.29354 24.7292C6.73163 26.1343 6.45068 26.6401 6.05734 27.5956C5.66401 28.5511 4.93353 30.2934 4.31543 31.6423L2.91066 34.6773L0.943976 38.4429L0.0449219 39.7918V45.4121C8.15433 31.5203 14.2644 16.5539 18.1946 0.955078H15.2726Z" fill="#282E6C"/>
<path d="M1.84303 87.5649C1.22493 88.2393 0.663021 88.97 0.0449219 89.7006V94.0283L3.97828 89.3634C8.70307 84.0039 13.1121 78.374 17.1831 72.5023C31.6242 50.3581 40.109 25.2912 48.3129 0.955078H45.3909C37.2995 24.7854 28.927 49.4026 14.8231 70.9848C10.8172 76.7554 6.48336 82.2912 1.84303 87.5649Z" fill="#282E6C"/>
<path d="M228.573 4.15868L226.887 5.33896C225.145 6.51924 223.347 7.69951 221.605 8.76738C203.708 19.7519 184.112 27.6907 163.616 32.2605C158.953 33.2722 154.233 33.9466 149.625 34.5648C138.314 35.2905 127.319 38.5973 117.484 44.2319C94.1084 59.5755 73.4302 97.1195 81.1283 126.402C87.1969 149.557 108.943 164.901 128.104 178.446C133.723 182.493 139.342 186.315 144.062 190.249C178.957 218.351 206.827 241.394 231.664 263.314C238.744 274.554 246.891 280.175 255.826 280.175C278.752 280.175 301.34 243.361 314.826 221.498L317.074 217.789C336.403 186.652 341.011 154.166 345.843 119.77C346.911 112.182 347.979 104.314 349.271 96.5012C350.058 91.5553 351.013 86.6656 352.137 81.8883C352.53 80.2584 353.036 78.6847 353.485 77.0548C354.272 73.9636 355.059 70.8724 355.958 67.8374C356.576 65.9265 357.306 64.1279 357.981 62.217C358.655 60.3061 359.723 56.8777 360.79 54.2923C361.858 51.7069 362.476 50.4705 363.263 48.672C364.049 46.8734 365.342 43.726 366.522 41.3093C367.702 38.8925 368.601 37.4874 369.612 35.6889C370.624 33.8904 371.916 31.1926 373.208 28.9445C374.501 26.6963 375.625 25.1226 376.861 23.3241C378.097 21.5256 379.446 19.1088 380.85 17.0855C382.255 15.0622 383.66 13.3199 385.065 11.4652C386.469 9.61044 387.874 7.5309 389.391 5.84479C390.909 4.15868 391.751 3.20322 392.875 1.85434H389.223C388.324 2.866 387.425 3.87767 386.582 4.94554C384.952 7.02507 383.435 9.1046 381.862 11.2403L378.041 16.4673C376.58 18.6592 375.175 20.9074 373.77 23.1555C372.366 25.4037 371.466 26.6963 370.455 28.7759C369.444 30.8554 367.87 33.4408 366.634 35.8013C365.398 38.1619 364.667 39.5108 363.768 41.4217C362.869 43.3326 361.521 46.4238 360.453 48.953C359.385 51.4821 358.767 52.6624 358.037 54.5733C357.306 56.4843 356.07 60.1937 355.171 62.6667C354.497 64.5214 353.823 66.3199 353.204 68.287C352.249 71.322 351.519 74.4694 350.676 77.5606C350.283 79.1905 349.777 80.7642 349.383 82.4503C348.26 87.2276 347.304 92.0612 346.462 97.0633C345.225 104.876 344.102 112.744 343.034 120.388C338.258 154.447 333.706 186.652 314.938 217.339L312.635 221.048C299.486 242.406 277.403 278.208 256.05 278.376C248.071 278.376 240.71 273.205 234.136 262.92C234.136 262.92 234.136 262.92 234.136 262.639L224.64 254.321C202.163 234.762 176.99 213.854 146.366 189.35C141.421 185.359 135.971 181.537 130.239 177.434C111.471 164.17 90.1751 149.333 84.3312 126.851C76.9702 98.7494 96.9741 62.6105 119.507 47.7727C128.993 42.339 139.611 39.1837 150.524 38.5553C155.188 37.8809 159.964 37.2064 164.74 36.1947C185.423 31.1171 205.129 22.6671 223.066 11.1841L228.685 7.5309L230.989 5.84479L234.361 3.42804L236.777 1.51711L237.507 0.955078H232.956L232.169 1.57332L228.573 4.15868Z" fill="#282E6C"/>
<path d="M270.267 89.0262C250.207 78.6847 210.536 89.7006 195.533 105.494C172.495 129.83 193.679 160.124 209.187 182.212L214.188 189.462C227.899 202.614 239.867 206.604 249.364 206.604C253.577 206.593 257.751 205.793 261.67 204.244C280.325 196.825 294.316 171.87 295.384 143.6C297.126 118.477 287.517 97.9625 270.267 89.0262ZM260.77 201.883C259.099 202.55 257.368 203.059 255.601 203.401C243.295 205.93 229.866 200.59 216.267 187.776L211.491 180.807C195.701 158.325 176.091 130.223 197.612 107.742C198.837 106.449 200.172 105.264 201.602 104.201L202.782 103.302C204.179 102.219 205.643 101.224 207.164 100.323L207.67 99.9297C209.468 98.918 211.323 97.9063 213.289 96.9509L214.806 96.2764C216.492 95.4896 218.178 94.7589 219.976 94.0845L221.044 93.6349C223.123 92.9042 225.314 92.1736 227.449 91.5553L229.023 91.1057C230.821 90.5999 232.675 90.1502 234.642 89.813L235.99 89.4758C238.238 89.0824 240.429 88.7451 242.621 88.5203H243.913L249.532 88.1831H254.14C254.814 88.1831 255.489 88.1831 256.107 88.1831C257.106 88.2552 258.101 88.3866 259.085 88.5765H260.827L263.861 89.3634L265.21 89.7568C266.59 90.192 267.925 90.7565 269.199 91.4429C285.438 99.8735 294.485 119.545 293.249 143.6C291.732 170.915 278.471 194.801 260.77 201.883Z" fill="#282E6C"/>
<path d="M66.4625 41.7027C47.3014 70.0855 27.1289 111.058 40.2776 145.117C51.01 173.219 80.5102 187.72 108.999 201.771C121.132 207.358 132.833 213.839 144.006 221.161C158.391 231.221 172.101 242.574 185.756 253.534C190.757 257.637 195.814 261.796 200.871 265.843C212.527 275.517 222.512 287.042 230.427 299.958C233.181 303.949 236.047 308.108 239.306 312.604C240.448 313.814 241.709 314.907 243.07 315.864L244.25 316.595C245.206 317.157 246.105 317.719 247.06 318.168L248.521 318.674C249.396 319.014 250.298 319.277 251.218 319.461H252.904C253.522 319.461 254.14 319.461 254.758 319.461H256.163C266.333 318.73 277.347 310.187 288.978 294.169C304.487 272.868 320.333 252.185 333.425 234.762C356.969 203.906 361.521 171.027 366.634 136.181C367.926 127.02 369.275 117.521 371.017 108.079C371.804 103.639 372.759 99.2552 373.826 94.9275C374.164 93.5786 374.613 92.2298 375.007 90.8247C375.793 87.9583 376.58 85.2043 377.479 82.2255C377.985 80.5956 378.659 79.0219 379.221 77.392C380.12 74.919 380.963 72.3899 381.974 69.9169C382.986 67.444 383.435 66.6009 384.166 64.9148C384.896 63.2287 386.132 60.3061 387.256 58.058C388.38 55.8098 388.998 54.7419 389.897 53.0558C390.796 51.3697 392.145 48.7282 393.381 46.5924C394.617 44.4567 395.404 43.3326 396.471 41.7027C397.539 40.0728 399 37.5998 400.349 35.6327C401.697 33.6656 402.652 32.4291 403.776 30.8554L404.619 29.6189V24.8978L402.315 27.989C401.079 29.6189 399.787 31.2488 398.607 32.9349C397.427 34.621 395.797 37.3188 394.449 39.4546C393.1 41.5903 392.369 42.602 391.414 44.2319C390.459 45.8618 388.773 48.953 387.762 51.5383C386.919 53.0558 386.02 54.5733 385.289 56.147C384.053 58.62 382.929 61.2054 381.806 63.7907C381.131 65.3082 380.401 66.7695 379.783 68.3432C378.659 71.041 377.704 73.9636 376.748 76.5489C376.243 78.0102 375.625 79.4715 375.119 80.989C374.164 83.9116 373.377 86.9466 372.534 89.9816C372.141 91.3305 371.691 92.6794 371.354 94.0845C370.23 98.5246 369.275 103.021 368.432 107.573C366.69 117.24 365.342 126.739 364.049 135.675C359.161 170.128 354.497 202.67 331.402 232.964C318.141 250.331 302.464 271.07 286.45 292.764C275.549 307.883 264.929 316.201 255.769 316.876C253.035 317.01 250.305 316.524 247.784 315.453C245.264 314.382 243.018 312.755 241.216 310.693C238.069 306.366 235.26 302.263 232.563 298.272C224.543 285.136 214.426 273.402 202.613 263.538C197.556 259.492 192.499 255.333 187.441 251.23C173.956 240.27 160.02 228.748 145.579 218.744C134.281 211.338 122.448 204.782 110.179 199.129C82.0836 185.359 53.2015 171.027 42.75 143.993C30.107 111.058 49.8862 70.9286 68.654 43.164C85.5112 18.0972 107.257 16.1301 130.464 14.1067C146.777 13.6925 162.844 10.0238 177.72 3.31563L181.991 0.955078H176.372C161.877 7.39825 146.263 10.9493 130.408 11.409C106.808 13.5447 84.3312 15.5118 66.4625 41.7027Z" fill="#282E6C"/>
<path d="M8.47355 218.913C12.7441 220.655 17.1269 222.341 21.4536 223.971L22.8022 224.421C27.2975 225.994 31.7928 227.512 36.288 228.973L37.3556 229.367L51.01 233.694C65.2825 238.134 80.0045 242.743 94.0522 248.588C131.251 264.1 155.188 292.202 180.53 321.653C185.419 327.273 190.363 332.894 195.421 338.907C213.57 359.871 249.476 392.413 284.82 405.621H293.811C256.444 394.942 216.942 359.366 197.5 337.334C192.442 331.713 187.554 326.093 182.665 320.135C157.379 290.123 132.936 261.74 95.1198 246.003C80.9598 240.101 66.1816 235.437 51.8529 230.997L37.3556 226.388H36.9623C32.1299 224.739 27.3162 223.072 22.5213 221.386H21.9032C17.2393 219.7 12.5755 217.845 7.96783 215.765L7.23735 215.428C4.87734 214.529 2.46113 213.236 0.0449219 212.112V215.035C2.34875 216.103 4.59638 217.283 6.90021 218.238L8.47355 218.913Z" fill="#282E6C"/>
<path d="M187.273 363.749C176.878 352.003 166.145 339.863 156.255 326.936C136.532 301.644 117.933 277.758 85.1741 267.81C70.8454 263.426 56.4605 260.166 42.5814 256.963L26.567 253.253L16.9022 251.117C15.4412 250.78 13.9803 250.331 12.5193 249.937C9.93451 249.206 7.23735 248.532 4.65257 247.745L0.0449219 246.228V249.15C1.50588 249.656 2.96685 250.162 4.42781 250.555C7.01259 251.342 9.65356 252.073 12.2945 252.747L16.9022 253.871L26.0051 256.12L29.4889 256.963L42.2443 259.885C56.0672 263.089 70.3397 266.349 84.6122 270.676C116.529 280.4 135.184 303.949 154.289 328.847C164.235 341.605 175.023 353.801 185.475 365.548C194.184 375.384 203.175 385.556 211.547 395.954C214.17 399.214 216.698 402.418 219.133 405.565H222.729C219.864 401.856 217.11 398.034 213.739 394.324C205.029 383.814 195.982 373.585 187.273 363.749Z" fill="#282E6C"/>
<path d="M171.764 388.029C163.954 378.531 156.087 369.033 148.276 359.478L144.512 355.038C132.551 339.069 118.617 324.679 103.043 312.211C97.6036 308.223 91.8104 304.743 85.736 301.813C69.3608 294.708 52.0747 289.922 34.3775 287.594C23.011 285.867 11.754 283.484 0.663021 280.456H0.0449219V283.434C11.1331 286.474 22.3908 288.858 33.7594 290.572C51.1759 292.846 68.1944 297.517 84.3312 304.455C108.83 316.145 125.013 335.985 142.152 356.949L145.916 361.558L169.46 390.109L182.609 405.621H186.261L171.764 388.029Z" fill="#282E6C"/>
<path d="M131.475 379.149C116.922 362.288 101.807 344.753 81.3531 333.231C62.7571 323.834 42.9628 317.026 22.5213 312.998C17.6327 311.817 12.6317 310.581 7.68688 309.288L3.41637 307.995L0.0449219 307.04V310.075L3.02304 310.918L7.34973 312.155L22.0155 315.695C42.163 319.647 61.6741 326.341 80.0045 335.591C100.008 346.832 114.955 364.199 129.396 380.948C132.88 384.994 136.42 389.097 140.073 393.144L144.624 398.202L148.782 402.642L149.737 403.71L151.423 405.565H155.188C152.266 402.249 149.569 399.158 146.703 396.235C141.477 390.727 136.42 384.826 131.475 379.149Z" fill="#282E6C"/>
<path d="M59.6634 355.038C56.7415 353.52 53.7072 352.172 50.5605 350.879C36.2318 345.258 21.2289 340.256 6.67544 335.704L0.0449219 333.4V336.322L5.66401 338.177C20.1612 342.729 35.108 347.394 49.3243 353.239C73.9359 363.356 91.8608 379.543 112.708 399.664L119.17 405.621H123.271L114.843 397.64C96.4122 379.824 80.2293 365.098 59.6634 355.038Z" fill="#282E6C"/>
</g>
<g clip-path="url(#clip1_1353_22505)">
<rect width="202.287" height="202.333" transform="translate(607 202.861) rotate(90)" fill="#282E6C"/>
<path d="M607 216.74L607 212.779L597.08 202.861L593.118 202.861L607 216.74Z" fill="white"/>
<path d="M607 228.653L607 224.663L585.193 202.861L581.203 202.861L607 228.653Z" fill="white"/>
<path d="M607 240.537L607 236.576L573.278 202.861L569.315 202.861L607 240.537Z" fill="white"/>
<path d="M607 252.45L607 248.46L561.391 202.861L557.4 202.861L607 252.45Z" fill="white"/>
<path d="M607 264.334L607 260.373L549.476 202.861L545.513 202.861L607 264.334Z" fill="white"/>
<path d="M607 276.247L607 272.257L537.589 202.861L533.598 202.861L607 276.247Z" fill="white"/>
<path d="M607 288.131L607 284.169L525.673 202.861L521.711 202.861L607 288.131Z" fill="white"/>
<path d="M607 300.043L607 296.082L513.758 202.861L509.796 202.861L607 300.043Z" fill="white"/>
<path d="M607 311.928L607 307.966L501.871 202.861L497.909 202.861L607 311.928Z" fill="white"/>
<path d="M607 323.84L607 319.879L489.956 202.861L485.994 202.861L607 323.84Z" fill="white"/>
<path d="M607 335.753L607 331.763L478.069 202.861L474.078 202.861L607 335.753Z" fill="white"/>
<path d="M607 347.637L607 343.676L466.154 202.861L462.191 202.861L607 347.637Z" fill="white"/>
<path d="M607 359.55L607 355.56L454.267 202.861L450.276 202.861L607 359.55Z" fill="white"/>
<path d="M607 371.434L607 367.472L442.351 202.861L438.389 202.861L607 371.434Z" fill="white"/>
<path d="M607 383.346L607 379.357L430.464 202.861L426.474 202.861L607 383.346Z" fill="white"/>
<path d="M607 395.231L607 391.269L418.549 202.861L414.587 202.861L607 395.231Z" fill="white"/>
<path d="M607 405.148L607 403.154L406.662 202.861L404.667 202.861L404.667 204.856L605.005 405.148L607 405.148Z" fill="white"/>
<path d="M593.118 405.148L597.08 405.148L404.667 212.779L404.667 216.74L593.118 405.148Z" fill="white"/>
<path d="M581.203 405.148L585.193 405.148L404.667 224.663L404.667 228.653L581.203 405.148Z" fill="white"/>
<path d="M569.315 405.148L573.278 405.148L404.667 236.576L404.667 240.537L569.315 405.148Z" fill="white"/>
<path d="M557.4 405.148L561.391 405.148L404.667 248.46L404.667 252.45L557.4 405.148Z" fill="white"/>
<path d="M545.513 405.148L549.476 405.148L404.667 260.373L404.667 264.334L545.513 405.148Z" fill="white"/>
<path d="M533.598 405.148L537.589 405.148L404.667 272.257L404.667 276.247L533.598 405.148Z" fill="white"/>
<path d="M521.711 405.148L525.673 405.148L404.667 284.169L404.667 288.131L521.711 405.148Z" fill="white"/>
<path d="M509.796 405.148L513.786 405.148L404.667 296.082L404.667 300.043L509.796 405.148Z" fill="white"/>
<path d="M497.909 405.148L501.871 405.148L404.667 307.966L404.667 311.928L497.909 405.148Z" fill="white"/>
<path d="M485.994 405.148L489.956 405.148L404.667 319.879L404.667 323.84L485.994 405.148Z" fill="white"/>
<path d="M474.078 405.148L478.069 405.148L404.667 331.763L404.667 335.753L474.078 405.148Z" fill="white"/>
<path d="M462.191 405.148L466.154 405.148L404.667 343.676L404.667 347.637L462.191 405.148Z" fill="white"/>
<path d="M450.276 405.148L454.267 405.148L404.667 355.56L404.667 359.55L450.276 405.148Z" fill="white"/>
<path d="M438.389 405.148L442.351 405.148L404.667 367.472L404.667 371.434L438.389 405.148Z" fill="white"/>
<path d="M426.474 405.148L430.464 405.148L404.667 379.357L404.667 383.346L426.474 405.148Z" fill="white"/>
<path d="M414.587 405.148L418.549 405.148L404.667 391.269L404.667 395.231L414.587 405.148Z" fill="white"/>
</g>
<defs>
<clipPath id="clip0_1353_22505">
<rect width="404.574" height="404.666" fill="white" transform="translate(0.0449219 0.955078)"/>
</clipPath>
<clipPath id="clip1_1353_22505">
<rect width="202.287" height="202.333" fill="white" transform="translate(607 202.861) rotate(90)"/>
</clipPath>
</defs>
</svg>
