<svg width="533" height="533" viewBox="0 0 533 533" fill="none" xmlns="http://www.w3.org/2000/svg">
<g clip-path="url(#clip0_36_257)">
<path d="M0 0L533 0L533 533L0 533L0 0Z" fill="#5B0462"/>
<path d="M100.678 528.262C99.4193 527.152 98.1608 526.041 96.8283 525.005L92.1646 521.452L88.3892 518.565L83.4293 515.159L79.5799 512.568L74.0278 509.237C72.8433 508.571 71.6589 507.757 70.3264 507.09L63.2938 503.389L60.2586 501.834C56.7053 500.28 52.8558 498.725 49.2285 497.319L33.8307 491.396L28.9449 489.472L18.729 485.622L13.1029 483.327L4.14556 479.774L0 478.145L0 482.143L3.55333 483.623L17.9147 489.398L26.3539 492.729L32.7943 495.246C37.8282 497.171 42.8621 499.169 47.97 501.02C51.5974 502.427 55.3728 503.907 58.4819 505.462C59.5924 505.906 60.6288 506.498 61.7392 507.016L68.1796 510.273C69.4381 510.94 70.6225 511.68 71.8069 512.42C72.9914 513.161 75.4343 514.419 77.211 515.529L80.9124 518.046L85.7242 521.304L89.3515 524.043L93.9412 527.522L97.5686 530.483L100.678 533.074H106.304L105.193 532.112L100.678 528.262Z" fill="#851178"/>
<path d="M52.3376 257.987C74.1814 271.646 96.9367 283.791 120.443 294.334C136.877 302.181 153.83 310.25 170.042 319.43C214.014 344.303 246.068 371.916 267.832 403.896C274.426 414.268 282.12 423.898 290.781 432.618L296.555 438.911L300.849 442.982C307.46 449.105 315.244 453.824 323.731 456.852C332.218 459.881 341.231 461.156 350.225 460.601C359.102 460.096 367.782 457.787 375.737 453.816C383.692 449.845 390.754 444.295 396.493 437.504C404.27 427.512 409.252 415.632 410.928 403.081C412.056 397.455 413.489 391.895 415.222 386.425C420.848 369.399 432.766 359.331 446.536 347.634L447.276 347.042C475.647 324.49 495.893 293.303 504.943 258.209C510.484 235.81 513.194 212.806 513.013 189.733C513.457 177.371 513.827 164.564 515.233 151.683C517.99 130.392 523.981 109.648 533 90.1658V81.4306C532.972 81.6518 532.972 81.8756 533 82.0968C532.556 82.8371 532.26 83.6514 531.89 84.3917L530.335 87.7229C530.335 87.7229 530.335 87.7229 530.335 88.0931C520.989 108.139 514.82 129.517 512.05 151.461C510.644 164.49 510.273 177.371 509.829 189.807C510.056 212.605 507.395 235.34 501.908 257.469C492.988 291.899 472.919 322.407 444.833 344.229L444.167 344.821C430.546 356.37 417.665 367.03 411.668 385.241C409.925 390.833 408.492 396.517 407.375 402.267C405.695 414.214 400.98 425.53 393.68 435.135C388.252 441.53 381.582 446.757 374.074 450.498C366.567 454.239 358.378 456.417 350.003 456.899C341.537 457.412 333.054 456.207 325.065 453.357C317.076 450.507 309.745 446.072 303.514 440.317L299.368 436.32L293.594 430.101C285.241 421.516 277.799 412.088 271.386 401.971C249.177 369.473 216.901 341.416 172.337 316.247C156.051 307.067 139.024 298.924 122.59 291.077C99.2065 280.61 76.5742 268.539 54.8546 254.952C47.97 250.362 40.7153 246.216 33.7567 242.145C22.1136 235.622 11.0001 228.197 0.518194 219.937L0.518194 224.748C10.5338 232.155 21.0183 238.906 31.906 244.958C38.3464 249.252 45.4531 253.471 52.3376 257.987Z" fill="#851178"/>
<path d="M532.408 311.731C531.709 328.01 528.436 344.076 522.71 359.331C516.765 371.374 509.11 382.494 499.984 392.347C489.583 403.425 481.101 416.16 474.888 430.027C471.62 439.481 469.022 449.153 467.115 458.972C460.971 486.362 453.346 520.045 435.95 533H441.65C457.714 517.602 464.894 485.77 470.743 459.638C472.587 449.963 475.059 440.418 478.145 431.064C484.252 417.59 492.53 405.211 502.649 394.42C511.98 384.41 519.832 373.118 525.967 360.885C529.265 353.227 531.626 345.199 533 336.974V305.513C533 307.585 532.556 309.658 532.408 311.731Z" fill="#851178"/>
<path d="M0 533H1.18444L0 532.26L0 533Z" fill="#851178"/>
<path d="M413.593 0L383.908 0C376.506 2.85217 369.412 6.44862 362.736 10.734C353.038 16.9524 343.859 23.3187 335.05 29.4631C312.397 45.379 290.633 60.4067 262.132 69.5121C255.84 71.5108 249.103 73.2135 241.923 74.9901C211.497 82.3929 177 91.2762 168.635 125.033C151.017 195.803 273.903 287.154 311.953 313.36C317.898 318.075 325.242 320.679 332.829 320.762C335.419 320.736 338 320.439 340.528 319.874C372.36 312.471 398.047 263.169 402.859 253.249C420.182 218.086 422.032 179.221 423.735 141.467V137.025C423.735 130.363 425.067 121.628 426.178 111.486C431.138 70.9186 437.356 14.8056 413.593 0ZM422.921 111.042C421.81 121.257 420.774 130.067 420.478 136.803V141.319C418.775 178.333 416.998 217.197 399.972 251.546C387.017 277.826 363.55 310.769 340.158 316.025C335.693 317.122 331.034 317.166 326.549 316.151C322.065 315.135 317.879 313.09 314.322 310.176C165.378 207.648 167.895 143.244 172.189 125.847C180.11 94.3114 213.422 85.8722 242.811 78.5435C250.214 76.6928 256.876 74.9901 263.243 72.9914C292.854 63.6639 314.248 48.4882 337.271 32.4242C346.006 26.3539 355.333 19.9875 364.735 13.9172C367.104 12.3626 369.399 11.1042 371.619 9.84569L373.174 8.95736L379.244 5.84819H379.614C381.687 4.95986 383.612 4.14556 385.537 3.47931L386.869 2.96111C388.572 2.44292 390.2 1.92472 391.829 1.55458H392.421C394.083 1.20988 395.764 0.962701 397.455 0.814306L401.231 0.814306C402.551 0.869933 403.864 1.04335 405.154 1.3325C405.719 1.25626 406.292 1.25626 406.857 1.3325C408.547 1.7666 410.168 2.43962 411.668 3.33125C433.433 16.9524 427.14 74.0278 422.921 111.042Z" fill="#851178"/>
<path d="M334.754 230.522C329.463 230.267 324.301 228.799 319.667 226.232C315.034 223.665 311.052 220.067 308.03 215.717C307.911 215.356 307.911 214.967 308.03 214.607C308.03 200.541 316.469 187.734 327.351 185.514C336.308 183.589 344.229 189.141 349.559 200.319C354.889 212.682 353.261 222.972 345.043 227.709C341.96 229.629 338.384 230.606 334.754 230.522ZM311.435 214.088C320.984 226.451 334.976 229.338 342.601 224.896C349.115 221.121 350.003 212.83 345.562 202.17C341.12 191.51 334.902 187.734 327.869 189.215C322.81 191.029 318.475 194.433 315.513 198.917C312.55 203.401 311.119 208.723 311.435 214.088Z" fill="#851178"/>
<path d="M20.0615 0C20.0615 1.11042 19.3953 2.22083 19.0251 3.33125C18.8619 4.00714 18.6642 4.67426 18.4329 5.33C17.6926 7.77292 16.9524 10.2158 16.1381 12.7328C16.1381 13.6951 15.4718 14.7315 15.1017 15.7679C14.7315 16.8043 13.7692 19.9875 13.0289 22.0603L11.6964 25.6136C10.9561 27.5383 10.2899 29.4631 9.54958 31.3137C8.80931 33.1644 8.43917 33.8307 7.92097 35.0892C7.40278 36.3476 6.44042 38.6425 5.62611 40.4192L3.77542 44.4167L1.18444 49.3765L0 51.1532L0 58.556C10.6836 40.2585 18.7332 20.5457 23.911 0L20.0615 0Z" fill="#851178"/>
<path d="M2.36889 114.077C1.55458 114.965 0.814306 115.927 0 116.89L0 122.59L5.18194 116.446C11.4065 109.387 17.2152 101.971 22.5785 94.2374C41.6036 65.0704 52.7818 32.054 63.5899 0L59.7404 0C49.0804 31.3878 38.0503 63.8119 19.4693 92.2386C14.1918 99.8392 8.48223 107.131 2.36889 114.077Z" fill="#851178"/>
<path d="M301.071 4.21958L298.85 5.77417C296.555 7.32875 294.186 8.88333 291.892 10.2899C268.312 24.758 242.496 35.2144 215.495 41.2335C209.351 42.566 203.132 43.4543 197.062 44.2686C182.16 45.2243 167.675 49.5799 154.718 57.0014C123.922 77.211 96.6803 126.662 106.822 165.23C114.817 195.729 143.466 215.939 168.709 233.78C176.112 239.11 183.515 244.144 189.733 249.326C235.704 286.339 272.422 316.691 305.143 345.562C314.47 360.367 325.204 367.77 336.974 367.77C367.178 367.77 396.937 319.282 414.704 290.485L417.665 285.599C443.13 244.588 449.201 201.8 455.567 156.495C456.973 146.501 458.38 136.137 460.083 125.847C461.119 119.333 462.377 112.892 463.858 106.6C464.376 104.453 465.043 102.38 465.635 100.234C466.671 96.1621 467.707 92.0906 468.892 88.0931C469.706 85.5761 470.669 83.2072 471.557 80.6903C472.445 78.1733 473.852 73.6576 475.258 70.2524C476.665 66.8471 477.479 65.2185 478.516 62.8496C479.552 60.4807 481.255 56.3351 482.809 53.1519C484.364 49.9687 485.548 48.1181 486.881 45.7492C488.213 43.3803 489.916 39.8269 491.618 36.8658C493.321 33.9047 494.802 31.8319 496.43 29.4631C498.059 27.0942 499.836 23.911 501.686 21.246C503.537 18.581 505.388 16.2861 507.238 13.8432C509.089 11.4003 510.94 8.66125 512.938 6.44042C514.937 4.21958 516.048 2.96111 517.528 1.18444L512.716 1.18444C511.532 2.51694 510.347 3.84944 509.237 5.25597C507.09 7.995 505.091 10.734 503.019 13.5471L497.985 20.4317C496.06 23.3187 494.209 26.2799 492.359 29.241C490.508 32.2021 489.324 33.9047 487.991 36.6437C486.659 39.3828 484.586 42.7881 482.957 45.8972C481.329 49.0064 480.366 50.7831 479.182 53.3C477.997 55.8169 476.221 59.8885 474.814 63.2197C473.408 66.551 472.593 68.1056 471.631 70.6225C470.669 73.1394 469.04 78.0253 467.856 81.2825C466.967 83.7254 466.079 86.0943 465.265 88.6853C464.006 92.6828 463.044 96.8283 461.933 100.9C461.415 103.047 460.749 105.119 460.231 107.34C458.75 113.633 457.492 119.999 456.381 126.588C454.753 136.877 453.272 147.241 451.866 157.309C445.573 202.17 439.577 244.588 414.852 285.007L411.817 289.893C394.494 318.023 365.401 365.179 337.271 365.401C326.759 365.401 317.061 358.591 308.4 345.043C308.4 345.043 308.4 345.043 308.4 344.673L295.889 333.717C266.278 307.956 233.113 280.417 192.768 248.141C186.254 242.885 179.073 237.851 171.522 232.447C146.797 214.977 118.741 195.433 111.042 165.822C101.344 128.808 127.698 81.2085 157.383 61.6651C169.88 54.5083 183.869 50.3522 198.246 49.5246C204.391 48.6362 210.683 47.7479 216.975 46.4154C244.224 39.7274 270.185 28.5977 293.816 13.4731L301.219 8.66125L304.254 6.44042L308.696 3.25722L311.879 0.740278L312.841 0L306.845 0L305.809 0.814306L301.071 4.21958Z" fill="#851178"/>
<path d="M356 116.002C329.572 102.38 277.308 116.89 257.543 137.692C227.191 169.746 255.1 209.647 275.531 238.74L282.12 248.289C300.183 265.612 315.951 270.868 328.461 270.868C334.012 270.853 339.511 269.799 344.673 267.758C369.251 257.987 387.683 225.118 389.09 187.882C391.385 154.792 378.726 127.772 356 116.002ZM343.489 264.649C341.287 265.528 339.006 266.198 336.678 266.648C320.466 269.979 302.774 262.947 284.859 246.068L278.567 236.889C257.765 207.278 231.929 170.264 260.282 140.653C261.896 138.949 263.654 137.389 265.538 135.989L267.092 134.805C268.934 133.378 270.862 132.068 272.866 130.881L273.533 130.363C275.902 129.03 278.344 127.698 280.935 126.439L282.934 125.551C285.155 124.515 287.376 123.552 289.745 122.664L291.151 122.072C293.89 121.109 296.777 120.147 299.59 119.333L301.663 118.741C304.032 118.074 306.475 117.482 309.066 117.038L310.843 116.594C313.804 116.076 316.691 115.631 319.578 115.335H321.281L328.683 114.891H334.754C335.642 114.891 336.53 114.891 337.345 114.891C338.661 114.986 339.972 115.159 341.268 115.409H343.563L347.56 116.446L349.337 116.964C351.155 117.537 352.915 118.281 354.593 119.185C375.987 130.289 387.906 156.199 386.277 187.882C384.278 223.86 366.808 255.322 343.489 264.649Z" fill="#851178"/>
<path d="M87.5008 53.6701C62.2574 91.0542 35.6814 145.02 53.0039 189.881C67.1432 226.895 106.008 245.994 143.54 264.501C159.524 271.861 174.94 280.397 189.659 290.041C208.61 303.292 226.673 318.245 244.662 332.681C251.25 338.085 257.913 343.563 264.575 348.893C279.931 361.635 293.086 376.816 303.514 393.828C307.141 399.084 310.917 404.562 315.21 410.484C316.715 412.078 318.377 413.517 320.17 414.778L321.725 415.74C322.983 416.48 324.168 417.221 325.426 417.813L327.351 418.479C328.503 418.926 329.692 419.273 330.904 419.515H333.125C333.939 419.515 334.754 419.515 335.568 419.515H337.419C350.818 418.553 365.327 407.301 380.651 386.203C401.082 358.146 421.958 330.904 439.207 307.956C470.224 267.314 476.221 224.008 482.957 178.111C484.66 166.044 486.436 153.534 488.731 141.097C489.768 135.249 491.026 129.475 492.433 123.774C492.877 121.998 493.469 120.221 493.987 118.37C495.024 114.595 496.06 110.968 497.245 107.044C497.911 104.897 498.799 102.825 499.539 100.678C500.724 97.4206 501.834 94.0893 503.167 90.8321C504.499 87.5749 505.092 86.4644 506.054 84.2436C507.016 82.0228 508.645 78.1733 510.125 75.2122C511.606 72.2511 512.42 70.8446 513.605 68.6238C514.789 66.4029 516.566 62.9236 518.194 60.1106C519.823 57.2975 520.859 55.8169 522.266 53.6701C523.673 51.5233 525.597 48.2661 527.374 45.6751C529.151 43.0842 530.409 41.4556 531.89 39.3828L533 37.7542V31.5358L529.965 35.6074C528.336 37.7542 526.634 39.901 525.079 42.1218C523.524 44.3426 521.378 47.896 519.601 50.709C517.824 53.5221 516.862 54.8546 515.603 57.0014C514.345 59.1482 512.124 63.2197 510.792 66.625C509.681 68.6237 508.497 70.6225 507.534 72.6953C505.906 75.9525 504.425 79.3578 502.945 82.7631C502.056 84.7618 501.094 86.6865 500.28 88.7593C498.799 92.3126 497.541 96.1621 496.282 99.5674C495.616 101.492 494.802 103.417 494.135 105.416C492.877 109.265 491.841 113.262 490.73 117.26C490.212 119.037 489.62 120.813 489.176 122.664C487.695 128.512 486.437 134.434 485.326 140.431C483.031 153.163 481.255 165.674 479.552 177.445C473.112 222.824 466.967 265.686 436.542 305.587C419.071 328.461 398.418 355.777 377.32 384.352C362.958 404.266 348.967 415.222 336.9 416.11C333.297 416.287 329.701 415.646 326.38 414.236C323.06 412.826 320.102 410.683 317.727 407.967C313.582 402.267 309.88 396.863 306.327 391.607C295.762 374.305 282.433 358.85 266.87 345.858C260.208 340.528 253.545 335.05 246.883 329.646C229.116 315.21 210.757 300.035 191.732 286.858C176.847 277.103 161.258 268.468 145.094 261.022C108.081 242.885 70.0303 224.008 56.2611 188.401C39.6049 145.02 65.6626 92.1646 90.3879 55.5949C112.596 22.5785 141.245 19.9875 171.818 17.3225C193.31 16.777 214.477 11.9447 234.076 3.10917L239.702 0L232.299 0C213.203 8.48653 192.633 13.1637 171.744 13.7692C140.653 16.5822 111.042 19.1732 87.5008 53.6701Z" fill="#851178"/>
<path d="M11.1042 287.08C16.7303 289.375 22.5044 291.595 28.2046 293.742L29.9813 294.334C35.9035 296.407 41.8257 298.406 47.7479 300.331L49.1544 300.849L67.1432 306.549C85.9462 312.397 105.342 318.468 123.848 326.166C172.855 346.598 204.391 383.612 237.777 422.403C244.218 429.805 250.732 437.208 257.395 445.129C281.306 472.741 328.609 515.603 375.173 533H387.017C337.789 518.935 285.747 472.075 260.134 443.056C253.471 435.653 247.031 428.251 240.59 420.404C207.278 380.873 175.076 343.489 125.255 322.761C106.6 314.988 87.1307 308.844 68.2536 302.996L49.1544 296.925H48.6363C42.2699 294.754 35.9281 292.558 29.6111 290.337H28.7968C22.6525 288.116 16.5082 285.673 10.4379 282.934L9.47556 282.49C6.36639 281.306 3.18319 279.603 0 278.122L0 281.972C3.03514 283.378 5.99625 284.933 9.03139 286.191L11.1042 287.08Z" fill="#851178"/>
<path d="M246.661 477.849C232.965 462.378 218.826 446.387 205.797 429.361C179.813 396.049 155.31 364.587 112.152 351.484C93.275 345.71 74.3239 341.416 56.039 337.197L34.9411 332.311L22.2083 329.498C20.2836 329.053 18.3589 328.461 16.4342 327.943C13.0289 326.981 9.47556 326.092 6.07028 325.056L0 323.057L0 326.907C1.92472 327.573 3.84944 328.239 5.77417 328.757C9.17944 329.794 12.6588 330.756 16.1381 331.644L22.2083 333.125L34.2008 336.086L38.7906 337.197L55.5949 341.046C73.8057 345.266 92.6088 349.559 111.412 355.259C153.46 368.066 178.037 399.084 203.206 431.878C216.309 448.682 230.522 464.746 244.292 480.218C255.766 493.173 267.61 506.572 278.641 520.267C282.095 524.561 285.426 528.78 288.634 532.926H293.372C289.597 528.04 285.969 523.006 281.528 518.12C270.053 504.277 258.135 490.804 246.661 477.849Z" fill="#851178"/>
<path d="M226.229 509.829C215.939 497.319 205.575 484.808 195.285 472.223L190.325 466.375C174.568 445.342 156.211 426.388 135.693 409.966C128.527 404.714 120.895 400.129 112.892 396.271C91.3191 386.912 68.5459 380.608 45.231 377.542C30.2564 375.268 15.426 372.129 0.814306 368.14H0L0 372.064C14.6079 376.068 29.4392 379.207 44.4167 381.465C67.3618 384.459 89.7825 390.613 111.042 399.75C143.318 415.148 164.638 441.28 187.216 468.892L192.176 474.962L223.194 512.568L240.516 533H245.328L226.229 509.829Z" fill="#851178"/>
<path d="M173.151 498.133C153.978 475.925 134.064 452.828 107.118 437.652C82.6192 425.275 56.5416 416.308 29.6111 411.002C23.1707 409.448 16.5822 407.819 10.0678 406.116L4.44167 404.414L0 403.155L0 407.153L3.92347 408.263L9.62361 409.892L28.9449 414.556C55.4878 419.761 81.1924 428.578 105.342 440.761C131.695 455.567 151.387 478.442 170.412 500.502C175.002 505.832 179.665 511.236 184.477 516.566L190.473 523.228L195.952 529.077L197.21 530.483L199.431 532.926H204.391C200.541 528.558 196.988 524.487 193.213 520.637C186.328 513.383 179.665 505.61 173.151 498.133Z" fill="#851178"/>
<path d="M78.5435 466.375C74.694 464.376 70.6965 462.6 66.551 460.897C47.6739 453.494 27.9085 446.906 8.73528 440.909L0 437.874L0 441.724L7.40278 444.167C26.5019 450.163 46.1933 456.307 64.9224 464.006C97.3465 477.331 120.961 498.651 148.426 525.153L156.939 533H162.343L151.239 522.488C126.958 499.021 105.638 479.626 78.5435 466.375Z" fill="#851178"/>
</g>
<defs>
<clipPath id="clip0_36_257">
<path d="M0 0L533 0L533 533L0 533L0 0Z" fill="white"/>
</clipPath>
</defs>
</svg>
