<svg width="533" height="533" viewBox="0 0 533 533" fill="none" xmlns="http://www.w3.org/2000/svg">
<g clip-path="url(#clip0_74_855)">
<rect width="533" height="533" fill="#5B0462"/>
<g clip-path="url(#clip1_74_855)">
<path d="M545.292 13.6076C512.957 48.2821 491.447 91.646 483.404 138.376C472.782 198.362 473.224 253.257 434.498 304.094C414.582 330.214 395.182 355.743 375.487 382.6C362.061 401.12 336.17 429.748 313.082 406.137C295.821 382.379 286.232 363.343 262.775 344.528C238.064 324.828 213.869 304.021 187.978 285.501C146.006 256.061 72.979 239.46 52.8414 186.852C35.8018 142.434 62.4307 89.4574 87.068 52.5655C124.467 -2.69858 178.388 26.3722 230.761 -0.263717C237.685 -3.84929 244.363 -7.89174 250.751 -12.3643" stroke="#851178" stroke-width="5.33" stroke-linecap="round" stroke-linejoin="round"/>
<path d="M-12.3657 279.152C29.8275 301.287 77.8481 310.068 122.402 328.587C181.413 353.084 215.419 401.928 256.136 448.043C289.847 486.19 353.432 539.535 406.394 542.339C456.849 557.096 461.496 463.464 472.782 434.172C483.773 406.429 508.632 390.492 520.434 364.151C531.351 340.319 529.138 310.806 534.744 285.94C543.67 246.171 542.121 204.778 545.293 164.345" stroke="#851178" stroke-width="5.33" stroke-linecap="round" stroke-linejoin="round"/>
<path d="M63.464 -12.3643C62.7264 -10.4459 62.0625 -8.60128 61.3986 -6.53534C49.9651 27.1839 38.9005 61.0506 19.2792 91.2282C11.9027 102.517 -1.22731 116.241 -12.3657 130.703" stroke="#851178" stroke-width="5.33" stroke-linecap="round" stroke-linejoin="round"/>
<path d="M-12.3657 318.629C25.5491 332.205 67.4473 337.813 109.493 350.651C151.539 363.489 175.881 394.183 201.92 427.681C225.746 458.375 252.669 485.675 277.012 515.705C285.347 525.961 292.724 535.775 300.026 545.219" stroke="#851178" stroke-width="5.33" stroke-linecap="round" stroke-linejoin="round"/>
<path d="M168.578 132.839C151.686 196.294 266.463 279.153 313.672 309.921C350.554 335.671 389.354 280.407 403.591 253.697C421.663 219.462 422.917 181.611 424.835 144.276C426.9 103.031 458.324 -28.8208 365.233 26.2219C329.974 46.9551 303.566 69.9757 262.406 82.0762C229.359 91.373 178.831 94.6195 168.578 132.839Z" stroke="#851178" stroke-width="5.33" stroke-linecap="round" stroke-linejoin="round"/>
<path d="M-12.3657 363.637C-8.75127 364.891 -4.98929 366.145 -1.37484 367.252C35.5073 378.246 74.5287 377.803 110.009 394.7C145.49 411.596 167.472 440.888 191.15 470.107C211.804 495.267 232.532 520.28 253.186 545.44" stroke="#851178" stroke-width="5.33" stroke-linecap="round" stroke-linejoin="round"/>
<path d="M319.795 -12.3643C310.64 -4.00947 300.767 3.52108 290.289 10.1398C266.597 24.6232 240.677 35.0938 213.574 41.129C192.846 45.7036 171.971 44.523 153.604 56.6236C122.623 76.9879 96.8051 125.169 106.689 162.503C116.574 199.838 160.021 222.268 188.494 245.289C227.147 276.278 271.479 304.316 303.714 341.208C350.259 395.734 390.608 318.187 413.18 281.295C444.014 231.565 446.005 178.736 455.152 122.734C462.911 72.0634 485.884 24.9486 521.024 -12.3643" stroke="#851178" stroke-width="5.33" stroke-linecap="round" stroke-linejoin="round"/>
<path d="M-12.3657 472.395C7.25559 480.437 26.8769 488.406 46.6457 495.858C77.7005 507.516 96.5842 524.781 118.714 545.44" stroke="#851178" stroke-width="5.33" stroke-linecap="round" stroke-linejoin="round"/>
<path d="M174.258 545.44C165.775 537.398 156.923 529.208 147.703 520.354C121.885 495.267 97.6907 473.132 63.9066 459.04C39.048 448.857 13.2305 441.553 -12.3657 433.289" stroke="#851178" stroke-width="5.33" stroke-linecap="round" stroke-linejoin="round"/>
<path d="M213.575 545.439C205.682 536.289 197.641 527.288 189.454 518.581C162.161 489.363 139.663 456.16 103.961 436.239C68.2588 416.317 26.2869 411.521 -12.5132 399.347" stroke="#851178" stroke-width="5.33" stroke-linecap="round" stroke-linejoin="round"/>
<path d="M23.3362 -12.3643C15.4434 13.9766 7.55065 43.7852 -10.3741 65.0349C-10.9935 65.835 -11.6585 66.5987 -12.3657 67.3222" stroke="#851178" stroke-width="5.33" stroke-linecap="round" stroke-linejoin="round"/>
<path d="M345.538 198.952C357.193 229.72 319.056 234.147 307.992 212.233C299.804 196.148 332.629 165.306 345.538 198.952Z" stroke="#851178" stroke-width="5.33" stroke-linecap="round" stroke-linejoin="round"/>
<path d="M352.398 112.688C424.245 149.58 358.447 333.376 281.142 241.884C257.464 213.772 224.048 168.1 256.505 133.938C275.978 113.426 326.802 99.4811 352.398 112.688Z" stroke="#851178" stroke-width="5.33" stroke-linecap="round" stroke-linejoin="round"/>
<path d="M51.145 256.068C29.0157 241.311 4.89474 231.129 -12.5874 212.757C4.89474 231.129 29.1632 241.606 51.145 256.068ZM51.145 256.068C88.0272 280.343 129.63 295.321 168.356 317.235C207.083 339.148 241.9 366.08 266.242 402.012L266.758 402.455C275.202 414.982 284.917 426.603 295.748 437.133C301.917 443.895 309.45 449.272 317.848 452.91C326.247 456.548 335.321 458.364 344.472 458.238C353.623 458.113 362.644 456.049 370.94 452.182C379.236 448.315 386.618 442.734 392.6 435.805C406.025 419.573 404.771 404.004 410.894 385.485C417.016 366.965 429.482 357.225 443.35 345.494C471.362 323.346 491.361 292.639 500.296 258.06C510.476 222.275 506.566 188.334 510.476 152.107C515.002 118.311 526.996 85.9482 545.587 57.3682C526.866 85.9163 514.745 118.281 510.107 152.107C506.197 188.334 510.107 222.275 499.927 258.06C491.071 292.6 471.178 323.301 443.276 345.494C429.408 357.225 416.721 367.629 410.82 385.485C404.919 403.34 405.951 419.573 392.526 435.805C386.544 442.721 379.166 448.293 370.878 452.152C362.589 456.011 353.577 458.071 344.435 458.197C335.293 458.322 326.228 456.51 317.836 452.88C309.445 449.249 301.917 443.883 295.748 437.133C285.126 426.597 275.61 415.002 267.348 402.529" stroke="#851178" stroke-width="5.33" stroke-linecap="round" stroke-linejoin="round"/>
</g>
</g>
<defs>
<clipPath id="clip0_74_855">
<rect width="533" height="533" fill="white"/>
</clipPath>
<clipPath id="clip1_74_855">
<rect width="559.65" height="559.65" fill="white" transform="translate(-13.3252 -13.3252)"/>
</clipPath>
</defs>
</svg>
