<svg width="432" height="144" viewBox="0 0 432 144" fill="none" xmlns="http://www.w3.org/2000/svg">
<rect width="144" height="144" transform="translate(288)" fill="#83CAB6"/>
<rect width="144" height="144" transform="translate(144)" fill="#199573"/>
<g clip-path="url(#clip0_124_2347)">
<g clip-path="url(#clip1_124_2347)">
<path d="M140.639 91.0898C150.071 96.9543 148.037 110.12 143.311 120.392C142.514 122.116 141.622 123.794 140.639 125.419" stroke="white" stroke-width="1.44" stroke-miterlimit="10"/>
<path d="M140.639 139.381C144.683 132.913 148.057 126.049 150.709 118.896C154.876 108.583 159.003 100.185 155.793 88.9747C153.101 79.6195 147.598 77.8242 140.639 78.3628" stroke="white" stroke-width="1.44" stroke-miterlimit="10"/>
<path d="M140.639 53.3094C141.696 52.8706 142.733 52.3919 143.79 51.8932C148.037 49.8985 152.045 47.3652 156.451 45.6896C161.556 43.6949 165.045 46.3279 167.936 50.9557C172.921 58.8348 172.781 69.4667 174.736 78.2834C175.733 82.8959 177.286 87.3703 179.361 91.6081C181.355 95.5976 185.842 99.228 185.184 103.955C183.848 113.371 172.781 119.016 168.614 126.835C166.381 131.041 164.532 135.441 163.091 139.98C162.268 142.276 161.751 144.67 161.556 147.101C161.556 147.221 161.556 147.321 161.556 147.44" stroke="white" stroke-width="1.44" stroke-miterlimit="10"/>
<path d="M186.899 147.441C186.873 141.951 187.34 136.471 188.294 131.064C189.271 122.826 191.365 114.588 192.063 106.35C192.761 98.1116 186.081 90.3921 183.29 82.9518C177.427 67.1735 177.427 49.5202 173.599 33.2034C171.844 25.7631 163.928 14.0141 157.069 24.6061C154.736 28.1567 154.697 32.5651 152.204 36.1356C149.72 39.6274 146.393 42.4339 142.534 44.294C141.895 44.6132 141.277 44.8525 140.639 45.1318" stroke="white" stroke-width="1.44" stroke-miterlimit="10"/>
<path d="M140.639 64.0615C143.052 62.6652 145.325 61.2091 147.319 60.0721C150.509 58.0773 155.016 55.5241 158.824 56.681C163.41 58.0574 164.606 62.7849 165.045 66.9937C165.946 75.401 167.277 83.7566 169.033 92.0275C169.97 96.4957 170.508 99.767 168.475 103.996C166.441 108.225 164.008 110.499 161.556 113.969C158.868 117.242 156.891 121.04 155.753 125.12C154.835 129.269 153.408 133.289 151.506 137.088C149.734 140.373 148.393 143.872 147.518 147.501" stroke="white" stroke-width="1.44" stroke-miterlimit="10"/>
<path d="M231.144 147.441C231.264 147.042 231.383 146.623 231.543 146.224C234.813 137.866 244.404 131.643 251.023 126.038C254.613 123.006 258.182 119.914 261.531 116.603C264.542 113.61 267.394 108.145 271.342 106.37C278.779 103.078 287.114 118.338 291.281 123.444" stroke="white" stroke-width="1.44" stroke-miterlimit="10"/>
<path d="M288.39 105.013C283.385 97.4334 276.067 91.6487 267.792 98.5704C261.312 103.976 256.925 111.556 250.844 117.42C244.762 123.285 237.425 127.753 231.403 133.717C227.735 137.386 225.524 142.263 225.182 147.441" stroke="white" stroke-width="1.44" stroke-miterlimit="10"/>
<path d="M140.639 38.1289C143.954 36.4901 146.724 33.9269 148.615 30.7484C152.204 24.3653 153.719 15.1896 162.373 13.7733C180.319 10.8411 182.791 36.7725 183.688 48.5613C184.885 64.2997 186.918 78.3425 193.658 92.8043C197.107 100.265 196.549 107.166 198.583 114.926C199.557 118.577 201.193 122.018 203.408 125.079C205.083 127.353 208.293 132.16 210.586 133.616C214.574 136.05 218.243 132.938 221.114 130.564C224.242 128.303 227.52 126.257 230.925 124.441C237.433 120.702 243.46 116.18 248.87 110.976C256.148 103.416 268.331 76.8265 281.052 82.9304C285.413 85.1843 289.034 88.6467 291.48 92.904" stroke="white" stroke-width="1.44" stroke-miterlimit="10"/>
<path d="M291.381 76.0292C289.701 74.3758 287.684 73.1059 285.467 72.307C283.251 71.5082 280.887 71.1992 278.54 71.4015C263.326 72.6981 255.31 93.3434 247.355 103.796C238.362 115.505 219.44 124.282 206.778 113.53C200.677 108.384 201.873 99.2279 199.161 92.1267C196.449 85.0254 192.92 77.8444 191.445 70.1847C188.494 54.9051 192.821 38.8277 187.078 24.0069C181.495 9.58503 162.174 -1.76495 150.768 13.4947C146.382 19.3392 146.781 27.757 140.639 31.8062" stroke="white" stroke-width="1.44" stroke-miterlimit="10"/>
<path d="M250.824 147.44C251.343 146.572 251.937 145.751 252.599 144.987C256.079 141.027 260.639 138.171 265.719 136.768C271.98 135.093 275.15 138.484 278.101 143.55C278.924 144.947 279.851 146.281 280.873 147.54" stroke="white" stroke-width="1.44" stroke-miterlimit="10"/>
<path d="M291.381 137.865C286.755 132.4 281.87 123.902 274.991 122.386C267.354 120.651 258.421 129.328 253.057 133.796C248.671 137.447 243.088 141.995 240.495 147.48" stroke="white" stroke-width="1.44" stroke-miterlimit="10"/>
<path d="M281.949 -3.36133C277.423 -2.56592 273.066 -1.00069 269.068 1.26643C255.789 9.24532 259.099 23.9664 251.721 35.6754C248.551 40.6821 242.908 47.8033 236.288 47.3046C229.329 46.786 226.578 37.4706 225.581 31.8455C223.587 20.5753 229.728 7.33039 225.022 -3.36133" stroke="white" stroke-width="1.44" stroke-miterlimit="10"/>
<path d="M211.863 -3.36133C213.459 -1.27879 214.655 1.08157 215.392 3.60025C217.386 10.3225 217.166 17.5633 217.665 24.5249C218.163 31.4865 218.881 38.8071 219.659 45.9283C220.357 52.5308 220.775 61.2477 228.013 64.0603C241.114 69.1668 253.237 48.8206 259.139 39.8643C262.754 33.8222 265.677 27.3919 267.852 20.695C270.743 13.0353 274.851 9.54453 282.627 7.29049C285.538 6.45271 288.609 5.75455 291.48 5.11624" stroke="white" stroke-width="1.44" stroke-miterlimit="10"/>
<path d="M291.381 61.3481C289.766 60.5248 288.077 59.8569 286.336 59.3533C277.981 57.0594 272.737 62.0662 267.114 67.3322C261.578 72.4467 256.611 78.1448 252.3 84.3273C248.152 90.3114 245.839 97.6321 241.074 103.038C236.308 108.443 227.655 109.94 220.516 108.603C216.848 108.175 213.425 106.54 210.786 103.955C208.313 101.123 208.034 97.3129 206.658 93.9817C203.887 87.1598 199.919 80.657 197.726 73.6356C193.179 59.1938 199.6 44.0538 196.609 29.4525C193.518 14.3723 183.688 2.4838 168.853 -1.76496C165.352 -3.00748 161.558 -3.16583 157.966 -2.21935C154.374 -1.27288 151.15 0.734491 148.715 3.54101C146.064 6.07694 143.955 9.12362 142.514 12.4973C141.68 15.2119 141.053 17.9859 140.639 20.7954" stroke="white" stroke-width="1.44" stroke-miterlimit="10"/>
<path d="M291.381 17.424C288.44 18.4923 285.651 19.9408 283.086 21.7326C277.702 25.722 274.093 32.6038 270.424 38.0693C262.821 49.8427 253.933 60.7342 243.925 70.5434C239.12 75.0315 233.577 80.916 226.418 80.517C220.117 80.2378 212.84 74.3733 209.729 69.0474C206.619 63.7215 210.307 54.2465 210.925 48.3422C211.832 41.4671 211.893 34.5067 211.105 27.617C209.33 15.0901 206.698 4.87715 198.423 -3.4209" stroke="white" stroke-width="1.44" stroke-miterlimit="10"/>
<path d="M184.705 -3.36133L185.961 -2.54349C191.655 1.71943 196.333 7.1914 199.66 13.479C202.987 19.7665 204.88 26.7135 205.203 33.8203C205.382 47.544 197.347 63.1028 204.764 75.8691C208.183 82.0648 212.356 87.8134 217.186 92.9838C221.174 96.9732 231.044 103.137 236.029 97.7711C238.402 95.2378 238.86 91.1686 240.695 88.1964C242.628 85.0777 244.732 82.0678 246.996 79.1803C251.362 73.635 255.988 68.2492 260.714 63.0031C266.696 56.3008 280.195 39.3457 291.381 42.4774" stroke="white" stroke-width="1.44" stroke-miterlimit="10"/>
</g>
</g>
<rect width="144" height="144" fill="#004C31"/>
<g clip-path="url(#clip2_124_2347)">
<rect width="144" height="144" fill="#004C31"/>
<g clip-path="url(#clip3_124_2347)">
<path d="M-123.66 132.064L132.065 -123.66" stroke="white" stroke-width="2.16"/>
<path d="M-119.418 136.306L136.306 -119.418" stroke="white" stroke-width="2.16"/>
<path d="M-115.196 140.548L140.548 -115.196" stroke="white" stroke-width="2.16"/>
<path d="M-110.955 144.79L144.79 -110.954" stroke="white" stroke-width="2.16"/>
<path d="M-106.713 149.012L149.011 -106.713" stroke="white" stroke-width="2.16"/>
<path d="M-102.471 153.253L153.253 -102.472" stroke="white" stroke-width="2.16"/>
<path d="M-98.2495 157.494L157.495 -98.25" stroke="white" stroke-width="2.16"/>
<path d="M-94.0078 161.737L161.737 -94.0078" stroke="white" stroke-width="2.16"/>
<path d="M-89.7661 165.959L165.958 -89.7656" stroke="white" stroke-width="2.16"/>
<path d="M-85.5243 170.2L170.2 -85.5244" stroke="white" stroke-width="2.16"/>
<path d="M-81.3026 174.442L174.442 -81.3027" stroke="white" stroke-width="2.16"/>
<path d="M-77.0609 178.683L178.683 -77.0615" stroke="white" stroke-width="2.16"/>
<path d="M-72.8191 182.925L182.925 -72.8193" stroke="white" stroke-width="2.16"/>
<path d="M-68.5774 187.147L187.147 -68.5771" stroke="white" stroke-width="2.16"/>
<path d="M-64.3357 191.389L191.389 -64.3359" stroke="white" stroke-width="2.16"/>
<path d="M-60.114 195.631L195.63 -60.1133" stroke="white" stroke-width="2.16"/>
<path d="M-55.8722 199.872L199.872 -55.8721" stroke="white" stroke-width="2.16"/>
<path d="M-51.6305 204.094L204.094 -51.6309" stroke="white" stroke-width="2.16"/>
<path d="M-47.3888 208.336L208.336 -47.3887" stroke="white" stroke-width="2.16"/>
<path d="M-43.167 212.577L212.577 -43.167" stroke="white" stroke-width="2.16"/>
<path d="M-38.9253 216.82L216.819 -38.9248" stroke="white" stroke-width="2.16"/>
<path d="M-34.6836 221.041L221.041 -34.6836" stroke="white" stroke-width="2.16"/>
<path d="M-30.4419 225.283L225.283 -30.4414" stroke="white" stroke-width="2.16"/>
<path d="M-26.2201 229.524L229.524 -26.2207" stroke="white" stroke-width="2.16"/>
<path d="M-21.9784 233.766L233.766 -21.9785" stroke="white" stroke-width="2.16"/>
<path d="M-17.7367 237.988L237.988 -17.7363" stroke="white" stroke-width="2.16"/>
<path d="M-13.4949 242.229L242.23 -13.4951" stroke="white" stroke-width="2.16"/>
<path d="M-9.27319 246.471L246.471 -9.27344" stroke="white" stroke-width="2.16"/>
<path d="M-5.03149 250.713L250.713 -5.03125" stroke="white" stroke-width="2.16"/>
<path d="M-0.789673 254.954L254.955 -0.790039" stroke="white" stroke-width="2.16"/>
<path d="M3.45203 259.177L259.177 3.45215" stroke="white" stroke-width="2.16"/>
<path d="M7.69373 263.418L263.418 7.69336" stroke="white" stroke-width="2.16"/>
<path d="M11.9155 267.659L267.66 11.915" stroke="white" stroke-width="2.16"/>
</g>
</g>
<defs>
<clipPath id="clip0_124_2347">
<rect width="144" height="144" fill="white" transform="translate(144)"/>
</clipPath>
<clipPath id="clip1_124_2347">
<rect width="151.2" height="151.2" fill="white" transform="translate(140.4 -3.59961)"/>
</clipPath>
<clipPath id="clip2_124_2347">
<rect width="144" height="144" fill="white"/>
</clipPath>
<clipPath id="clip3_124_2347">
<rect width="391.68" height="391.68" fill="white" transform="translate(-123.84 -123.84)"/>
</clipPath>
</defs>
</svg>
