<svg width="288" height="144" viewBox="0 0 288 144" fill="none" xmlns="http://www.w3.org/2000/svg">
<rect width="144" height="144" fill="#107859"/>
<g clip-path="url(#clip0_124_2474)">
<g clip-path="url(#clip1_124_2474)">
<path d="M-3.36072 91.0898C6.07059 96.9543 4.03677 110.12 -0.688847 120.392C-1.48615 122.116 -2.37813 123.794 -3.36072 125.419" stroke="white" stroke-width="1.44" stroke-miterlimit="10"/>
<path d="M-3.36072 139.381C0.683202 132.913 4.05712 126.049 6.70865 118.896C10.876 108.583 15.0034 100.185 11.7932 88.9747C9.10137 79.6195 3.59811 77.8242 -3.36072 78.3628" stroke="white" stroke-width="1.44" stroke-miterlimit="10"/>
<path d="M-3.36072 53.3094C-2.30393 52.8706 -1.26709 52.3919 -0.210303 51.8932C4.03678 49.8985 8.04458 47.3652 12.4512 45.6896C17.5556 43.6949 21.045 46.3279 23.9362 50.9557C28.9211 58.8348 28.7815 69.4667 30.7355 78.2834C31.7326 82.8959 33.286 87.3703 35.3615 91.6081C37.3554 95.5976 41.8418 99.228 41.1838 103.955C39.8478 113.371 28.7815 119.016 24.6142 126.835C22.381 131.041 20.5324 135.441 19.091 139.98C18.2677 142.276 17.7514 144.67 17.5556 147.101C17.5556 147.221 17.5556 147.321 17.5556 147.44" stroke="white" stroke-width="1.44" stroke-miterlimit="10"/>
<path d="M42.8985 147.441C42.8731 141.951 43.3403 136.471 44.2943 131.064C45.2713 122.826 47.3649 114.588 48.0628 106.35C48.7607 98.1116 42.081 90.3921 39.2895 82.9518C33.4274 67.1735 33.4274 49.5202 29.599 33.2034C27.8443 25.7631 19.9284 14.0141 13.0693 24.6061C10.7364 28.1567 10.6965 32.5651 8.2041 36.1356C5.71984 39.6274 2.39316 42.4339 -1.46648 44.294C-2.10454 44.6132 -2.72266 44.8525 -3.36072 45.1318" stroke="white" stroke-width="1.44" stroke-miterlimit="10"/>
<path d="M-3.36072 64.0615C-0.948058 62.6652 1.32503 61.2091 3.31896 60.0721C6.50925 58.0773 11.0155 55.5241 14.824 56.681C19.41 58.0574 20.6064 62.7849 21.045 66.9937C21.9457 75.401 23.2768 83.7566 25.0329 92.0275C25.97 96.4957 26.5084 99.767 24.4746 103.996C22.4408 108.225 20.0082 110.499 17.5556 113.969C14.8675 117.242 12.8913 121.04 11.7533 125.12C10.8346 129.269 9.40817 133.289 7.50622 137.088C5.73354 140.373 4.39313 143.872 3.51835 147.501" stroke="white" stroke-width="1.44" stroke-miterlimit="10"/>
<path d="M87.1439 147.441C87.2636 147.042 87.3832 146.623 87.5427 146.224C90.8128 137.866 100.404 131.643 107.023 126.038C110.613 123.006 114.182 119.914 117.531 116.603C120.542 113.61 123.394 108.145 127.342 106.37C134.779 103.078 143.114 118.338 147.281 123.444" stroke="white" stroke-width="1.44" stroke-miterlimit="10"/>
<path d="M144.39 105.013C139.385 97.4334 132.067 91.6487 123.792 98.5704C117.312 103.976 112.925 111.556 106.844 117.42C100.762 123.285 93.4248 127.753 87.4031 133.717C83.735 137.386 81.5242 142.263 81.182 147.441" stroke="white" stroke-width="1.44" stroke-miterlimit="10"/>
<path d="M-3.36072 38.1289C-0.0460416 36.4901 2.7239 33.9269 4.61502 30.7484C8.2041 24.3653 9.71949 15.1896 18.3732 13.7733C36.3186 10.8411 38.791 36.7725 39.6883 48.5613C40.8847 64.2997 42.9185 78.3425 49.658 92.8043C53.1075 100.265 52.5492 107.166 54.583 114.926C55.5573 118.577 57.1928 122.018 59.4083 125.079C61.0832 127.353 64.2934 132.16 66.5865 133.616C70.5743 136.05 74.2432 132.938 77.1144 130.564C80.242 128.303 83.5196 126.257 86.9246 124.441C93.4331 120.702 99.4597 116.18 104.87 110.976C112.148 103.416 124.331 76.8265 137.052 82.9304C141.413 85.1843 145.034 88.6467 147.48 92.904" stroke="white" stroke-width="1.44" stroke-miterlimit="10"/>
<path d="M147.381 76.0292C145.701 74.3758 143.684 73.1059 141.467 72.307C139.251 71.5082 136.887 71.1992 134.54 71.4015C119.326 72.6981 111.31 93.3434 103.355 103.796C94.362 115.505 75.4395 124.282 62.7781 113.53C56.6766 108.384 57.873 99.2279 55.1612 92.1267C52.4495 85.0254 48.9202 77.8444 47.4447 70.1847C44.4937 54.9051 48.8205 38.8277 43.078 24.0069C37.495 9.58503 18.1738 -1.76495 6.76847 13.4947C2.38181 19.3392 2.7806 27.757 -3.36072 31.8062" stroke="white" stroke-width="1.44" stroke-miterlimit="10"/>
<path d="M106.824 147.44C107.343 146.572 107.937 145.751 108.599 144.987C112.079 141.027 116.639 138.171 121.719 136.768C127.98 135.093 131.15 138.484 134.101 143.55C134.924 144.947 135.851 146.281 136.873 147.54" stroke="white" stroke-width="1.44" stroke-miterlimit="10"/>
<path d="M147.381 137.865C142.755 132.4 137.87 123.902 130.991 122.386C123.354 120.651 114.421 129.328 109.057 133.796C104.671 137.447 99.0876 141.995 96.4955 147.48" stroke="white" stroke-width="1.44" stroke-miterlimit="10"/>
<path d="M137.949 -3.36133C133.423 -2.56592 129.066 -1.00069 125.068 1.26643C111.789 9.24532 115.099 23.9664 107.721 35.6754C104.551 40.6821 98.908 47.8033 92.2882 47.3046C85.3294 46.786 82.5777 37.4706 81.5808 31.8455C79.5868 20.5753 85.7281 7.33039 81.0225 -3.36133" stroke="white" stroke-width="1.44" stroke-miterlimit="10"/>
<path d="M67.8625 -3.36133C69.4587 -1.27879 70.6553 1.08157 71.3918 3.60025C73.3857 10.3225 73.1664 17.5633 73.6649 24.5249C74.1634 31.4865 74.8812 38.8071 75.6588 45.9283C76.3567 52.5308 76.7754 61.2477 84.0134 64.0603C97.1136 69.1668 109.237 48.8206 115.139 39.8643C118.754 33.8222 121.677 27.3919 123.852 20.695C126.743 13.0353 130.851 9.54453 138.627 7.29049C141.538 6.45271 144.609 5.75455 147.48 5.11624" stroke="white" stroke-width="1.44" stroke-miterlimit="10"/>
<path d="M147.381 61.3481C145.766 60.5248 144.077 59.8569 142.336 59.3533C133.981 57.0594 128.737 62.0662 123.114 67.3322C117.578 72.4467 112.611 78.1448 108.3 84.3273C104.152 90.3114 101.839 97.6321 97.0737 103.038C92.3082 108.443 83.6545 109.94 76.5163 108.603C72.8477 108.175 69.4251 106.54 66.7859 103.955C64.3134 101.123 64.0342 97.3129 62.6584 93.9817C59.8869 87.1598 55.9189 80.657 53.7256 73.6356C49.1794 59.1938 55.5999 44.0538 52.609 29.4525C49.5184 14.3723 39.6883 2.4838 24.8534 -1.76496C21.3524 -3.00748 17.5584 -3.16583 13.966 -2.21935C10.3737 -1.27288 7.1498 0.734491 4.71471 3.54101C2.06436 6.07694 -0.0450905 9.12362 -1.48642 12.4973C-2.32019 15.2119 -2.94675 17.9859 -3.36072 20.7954" stroke="white" stroke-width="1.44" stroke-miterlimit="10"/>
<path d="M147.381 17.424C144.44 18.4923 141.651 19.9408 139.086 21.7326C133.702 25.722 130.093 32.6038 126.424 38.0693C118.821 49.8427 109.933 60.7342 99.925 70.5434C95.1196 75.0315 89.5765 80.916 82.4183 80.517C76.1175 80.2378 68.8396 74.3733 65.7291 69.0474C62.6185 63.7215 66.3073 54.2465 66.9254 48.3422C67.8323 41.4671 67.8926 34.5067 67.1049 27.617C65.3303 15.0901 62.6983 4.87715 54.4235 -3.4209" stroke="white" stroke-width="1.44" stroke-miterlimit="10"/>
<path d="M40.7052 -3.36133L41.9614 -2.54349C47.6546 1.71943 52.3329 7.1914 55.6599 13.479C58.9869 19.7665 60.8799 26.7135 61.2028 33.8203C61.3823 47.544 53.3467 63.1028 60.7642 75.8691C64.1833 82.0648 68.3557 87.8134 73.1864 92.9838C77.1742 96.9732 87.0442 103.137 92.0291 97.7711C94.4018 95.2378 94.8604 91.1686 96.6949 88.1964C98.6282 85.0777 100.732 82.0678 102.996 79.1803C107.362 73.635 111.988 68.2492 116.714 63.0031C122.696 56.3008 136.195 39.3457 147.381 42.4774" stroke="white" stroke-width="1.44" stroke-miterlimit="10"/>
</g>
</g>
<rect width="144" height="144" transform="translate(144)" fill="#107859"/>
<g clip-path="url(#clip2_124_2474)">
<rect width="144" height="144" transform="translate(144)" fill="#107859"/>
<g clip-path="url(#clip3_124_2474)">
<path d="M20.3401 132.064L276.065 -123.66" stroke="white" stroke-width="2.16"/>
<path d="M24.5818 136.306L280.306 -119.418" stroke="white" stroke-width="2.16"/>
<path d="M28.8036 140.548L284.548 -115.196" stroke="white" stroke-width="2.16"/>
<path d="M33.0453 144.79L288.79 -110.954" stroke="white" stroke-width="2.16"/>
<path d="M37.287 149.012L293.011 -106.713" stroke="white" stroke-width="2.16"/>
<path d="M41.5288 153.253L297.253 -102.472" stroke="white" stroke-width="2.16"/>
<path d="M45.7504 157.494L301.495 -98.25" stroke="white" stroke-width="2.16"/>
<path d="M49.9922 161.737L305.737 -94.0078" stroke="white" stroke-width="2.16"/>
<path d="M54.234 165.959L309.958 -89.7656" stroke="white" stroke-width="2.16"/>
<path d="M58.4757 170.2L314.2 -85.5244" stroke="white" stroke-width="2.16"/>
<path d="M62.6974 174.442L318.442 -81.3027" stroke="white" stroke-width="2.16"/>
<path d="M66.9391 178.683L322.683 -77.0615" stroke="white" stroke-width="2.16"/>
<path d="M71.1809 182.925L326.925 -72.8193" stroke="white" stroke-width="2.16"/>
<path d="M75.4226 187.147L331.147 -68.5771" stroke="white" stroke-width="2.16"/>
<path d="M79.6643 191.389L335.389 -64.3359" stroke="white" stroke-width="2.16"/>
<path d="M83.8861 195.631L339.631 -60.1133" stroke="white" stroke-width="2.16"/>
<path d="M88.1278 199.872L343.872 -55.8721" stroke="white" stroke-width="2.16"/>
<path d="M92.3695 204.094L348.094 -51.6309" stroke="white" stroke-width="2.16"/>
<path d="M96.6112 208.336L352.336 -47.3887" stroke="white" stroke-width="2.16"/>
<path d="M100.833 212.577L356.577 -43.167" stroke="white" stroke-width="2.16"/>
<path d="M105.075 216.82L360.819 -38.9248" stroke="white" stroke-width="2.16"/>
<path d="M109.316 221.041L365.041 -34.6836" stroke="white" stroke-width="2.16"/>
<path d="M113.558 225.283L369.283 -30.4414" stroke="white" stroke-width="2.16"/>
<path d="M117.78 229.524L373.524 -26.2207" stroke="white" stroke-width="2.16"/>
<path d="M122.022 233.766L377.766 -21.9785" stroke="white" stroke-width="2.16"/>
<path d="M126.263 237.988L381.988 -17.7363" stroke="white" stroke-width="2.16"/>
<path d="M130.505 242.229L386.23 -13.4951" stroke="white" stroke-width="2.16"/>
<path d="M134.727 246.471L390.471 -9.27344" stroke="white" stroke-width="2.16"/>
<path d="M138.969 250.713L394.713 -5.03125" stroke="white" stroke-width="2.16"/>
<path d="M143.21 254.954L398.955 -0.790039" stroke="white" stroke-width="2.16"/>
<path d="M147.452 259.177L403.177 3.45215" stroke="white" stroke-width="2.16"/>
<path d="M151.694 263.418L407.418 7.69336" stroke="white" stroke-width="2.16"/>
<path d="M155.916 267.659L411.66 11.915" stroke="white" stroke-width="2.16"/>
</g>
</g>
<defs>
<clipPath id="clip0_124_2474">
<rect width="144" height="144" fill="white"/>
</clipPath>
<clipPath id="clip1_124_2474">
<rect width="151.2" height="151.2" fill="white" transform="translate(-3.59998 -3.59961)"/>
</clipPath>
<clipPath id="clip2_124_2474">
<rect width="144" height="144" fill="white" transform="translate(144)"/>
</clipPath>
<clipPath id="clip3_124_2474">
<rect width="391.68" height="391.68" fill="white" transform="translate(20.16 -123.84)"/>
</clipPath>
</defs>
</svg>
